<?xml version="1.0" encoding="UTF-8" standalone="no"?>
<!-- Created with Inkscape (http://www.inkscape.org/) -->
<svg
   xmlns:dc="http://purl.org/dc/elements/1.1/"
   xmlns:cc="http://web.resource.org/cc/"
   xmlns:rdf="http://www.w3.org/1999/02/22-rdf-syntax-ns#"
   xmlns:svg="http://www.w3.org/2000/svg"
   xmlns="http://www.w3.org/2000/svg"
   xmlns:xlink="http://www.w3.org/1999/xlink"
   xmlns:sodipodi="http://inkscape.sourceforge.net/DTD/sodipodi-0.dtd"
   xmlns:inkscape="http://www.inkscape.org/namespaces/inkscape"
   height="1683.7795pt"
   id="svg1"
   inkscape:version="0.42"
   sodipodi:docbase="/media/data/clipart"
   sodipodi:docname="jigsaw_puzzle_stk.svg"
   sodipodi:version="0.32"
   width="1190.5512pt">
  <metadata
     id="metadata1345">
    <rdf:RDF>
      <cc:Work
         rdf:about="">
        <dc:title>Clipart by Nicu Buculei - modified by Steve Karg</dc:title>
        <dc:description />
        <dc:subject>
          <rdf:Bag>
            <rdf:li>jigsaw</rdf:li>
            <rdf:li>shape</rdf:li>
            <rdf:li>puzzle</rdf:li>
          </rdf:Bag>
        </dc:subject>
        <dc:publisher>
          <cc:Agent
             rdf:about="http://www.openclipart.org">
            <dc:title>Nicu Buculei, Steve Karg</dc:title>
          </cc:Agent>
        </dc:publisher>
        <dc:creator>
          <cc:Agent>
            <dc:title>Nicu Buculei, Steve Karg</dc:title>
          </cc:Agent>
        </dc:creator>
        <dc:rights>
          <cc:Agent>
            <dc:title>Nicu Buculei, Steve Karg</dc:title>
          </cc:Agent>
        </dc:rights>
        <dc:date />
        <dc:format>image/svg+xml</dc:format>
        <dc:type
           rdf:resource="http://purl.org/dc/dcmitype/StillImage" />
        <cc:license
           rdf:resource="http://web.resource.org/cc/PublicDomain" />
        <dc:language>en</dc:language>
      </cc:Work>
      <cc:License
         rdf:about="http://web.resource.org/cc/PublicDomain">
        <cc:permits
           rdf:resource="http://web.resource.org/cc/Reproduction" />
        <cc:permits
           rdf:resource="http://web.resource.org/cc/Distribution" />
        <cc:permits
           rdf:resource="http://web.resource.org/cc/DerivativeWorks" />
      </cc:License>
    </rdf:RDF>
  </metadata>
  <defs
     id="defs3">
    <linearGradient
       id="linearGradient1085">
      <stop
         id="stop1086"
         offset="0.0000000"
         style="stop-color:#006600;stop-opacity:1.0000000;" />
      <stop
         id="stop1087"
         offset="1.0000000"
         style="stop-color:#00ff00;stop-opacity:1.0000000;" />
    </linearGradient>
    <radialGradient
       cx="1.7164468"
       cy="-0.64022434"
       fx="1.7164468"
       fy="-0.64022434"
       id="radialGradient1088"
       r="4.1027193"
       xlink:href="#linearGradient1085" />
    <radialGradient
       cx="-1.9368610"
       cy="-0.63499105"
       fx="-1.9368610"
       fy="-0.63499105"
       id="radialGradient1089"
       r="4.1027193"
       xlink:href="#linearGradient1085" />
    <radialGradient
       cx="-0.42395663"
       cy="-2.4909019"
       fx="-0.42395663"
       fy="-2.4909019"
       gradientTransform="scale(0.751916,1.329935)"
       id="radialGradient1090"
       r="4.1027193"
       xlink:href="#linearGradient1085" />
    <radialGradient
       cx="-0.42194343"
       cy="0.25614440"
       fx="-0.42194343"
       fy="0.25614440"
       gradientTransform="scale(0.751916,1.329935)"
       id="radialGradient1091"
       r="4.1027193"
       xlink:href="#linearGradient1085" />
    <radialGradient
       cx="0.77746075"
       cy="-0.62963188"
       fx="0.77746075"
       fy="-0.62963188"
       id="radialGradient1092"
       r="4.1027188"
       xlink:href="#linearGradient1085" />
    <radialGradient
       cx="-2.8758476"
       cy="-0.63852179"
       fx="-2.8758476"
       fy="-0.63852179"
       id="radialGradient1093"
       r="4.1027193"
       xlink:href="#linearGradient1085" />
    <radialGradient
       cx="-0.42395663"
       cy="-1.7813325"
       fx="-0.42395663"
       fy="-1.7813325"
       gradientTransform="scale(0.751916,1.329935)"
       id="radialGradient1094"
       r="4.1027193"
       xlink:href="#linearGradient1085" />
    <radialGradient
       cx="-0.41929287"
       cy="0.96238458"
       fx="-0.41929287"
       fy="0.96238458"
       gradientTransform="scale(0.751916,1.329935)"
       id="radialGradient1095"
       r="4.1027188"
       xlink:href="#linearGradient1085" />
    <radialGradient
       cx="109.89989"
       cy="158.61389"
       fx="109.89989"
       fy="158.61389"
       gradientTransform="scale(1.222775,0.817812)"
       id="radialGradient1096"
       r="455.84758"
       xlink:href="#linearGradient1085"
       gradientUnits="userSpaceOnUse" />
  </defs>
  <sodipodi:namedview
     bordercolor="#666666"
     borderopacity="1.0"
     id="base"
     inkscape:cx="744.09448"
     inkscape:cy="1063.8832"
     inkscape:pageopacity="0.0"
     inkscape:pageshadow="2"
     inkscape:window-height="932"
     inkscape:window-width="854"
     inkscape:window-x="398"
     inkscape:window-y="26"
     inkscape:zoom="0.36394314"
     pagecolor="#ffffff"
     showgrid="true"
     inkscape:current-layer="svg1"
     borderlayer="top"
     inkscape:grid-points="true"
     inkscape:guide-points="true" />
  <g
     id="g5072"
     transform="matrix(0.995866,0.000000,0.000000,0.988504,68.69034,-10.76178)">
    <path
       d="M 41.609368,801.36496 C 42.168908,816.56440 47.262678,833.61359 58.171868,842.70871 C 86.359598,855.93797 73.344778,823.80100 92.859368,820.02121 C 112.37396,816.24142 113.45312,838.92746 113.45312,838.92746 L 113.45312,838.92746 L 113.45312,936.67746 C 113.45312,936.67746 210.39063,936.55246 210.39062,936.55246 C 210.39062,936.55246 233.07665,935.47329 229.29687,915.95871 C 226.22579,900.10311 204.41883,905.72595 203.45312,893.27121 C 203.23026,890.39704 204.12888,886.55641 206.60937,881.27121 C 215.70449,870.36201 232.75368,865.26825 247.95312,864.70871 C 253.56407,864.50215 258.84106,864.99201 263.45312,865.95871 C 263.65781,865.98352 263.87329,866.02600 264.07812,866.05246 C 277.19253,867.74637 290.49592,872.81426 298.17187,882.02121 C 311.40114,910.20895 279.26415,897.19412 275.48437,916.70871 C 272.73044,930.92691 283.96271,935.31916 290.29687,936.67746 L 393.20312,936.67746 L 393.20312,835.08371 C 394.42138,828.88249 398.69219,816.84262 413.32812,819.67746 C 432.84272,823.45725 419.82788,855.56298 448.01562,842.33371 C 457.22258,834.65777 462.29046,821.35437 463.98437,808.23996 C 464.01084,808.03514 464.05331,807.81965 464.07812,807.61496 C 465.04483,803.00292 465.53468,797.72591 465.32812,792.11496 C 464.76859,776.91552 459.67482,759.86633 448.76562,750.77121 C 420.57790,737.54195 433.59271,769.67892 414.07812,773.45871 C 394.56355,777.23851 393.48437,754.55246 393.48437,754.55246 L 393.20312,657.36496 C 393.20312,657.36496 294.95311,657.98997 294.95312,657.98996 C 294.95312,657.98996 272.26707,659.06914 276.04687,678.58371 C 279.82666,698.09830 311.96362,685.08349 298.73437,713.27121 C 289.63925,724.18041 272.59006,729.27418 257.39062,729.83371 C 251.77967,730.04027 246.50267,729.55042 241.89062,728.58371 C 241.68593,728.55890 241.47043,728.51643 241.26562,728.48996 C 228.15121,726.79605 214.84780,721.72817 207.17187,712.52121 C 204.69138,707.23601 203.79276,703.39538 204.01562,700.52121 C 204.98133,688.06647 226.75704,693.68932 229.82812,677.83371 C 233.35482,659.62581 214.48840,657.57242 211.85937,657.36496 L 113.45312,657.36496 L 113.45312,759.52121 C 111.97118,765.92680 107.46124,776.48544 93.609368,773.80246 C 74.094778,770.02268 87.109608,737.91694 58.921868,751.14621 C 49.714928,758.82216 44.647038,772.12555 42.953118,785.23996 C 42.926658,785.44479 42.884178,785.66027 42.859368,785.86496 C 41.892668,790.47701 41.402808,795.75401 41.609368,801.36496 z "
       id="path1099"
       sodipodi:nodetypes="cccccccccccccccccccccccccccccccccccccccccccc"
       style="fill:#feff00;fill-opacity:1.0000000;fill-rule:evenodd;stroke:#000000;stroke-width:12.500000;stroke-linejoin:round;stroke-dasharray:none" />
    <path
       d="M 527.75000,585.52143 C 512.55056,586.08097 495.50137,591.17474 486.40625,602.08393 C 473.17699,630.27166 505.31396,617.25684 509.09375,636.77143 C 512.87354,656.28602 490.18750,657.36518 490.18750,657.36518 L 490.18750,657.36518 L 392.43750,657.36518 C 392.43750,657.36518 392.56250,754.30269 392.56250,754.30268 C 392.56250,754.30268 393.64167,776.98871 413.15625,773.20893 C 429.01185,770.13785 423.38901,748.33089 435.84375,747.36518 C 438.71792,747.14232 442.55855,748.04094 447.84375,750.52143 C 458.75295,759.61655 463.84671,776.66574 464.40625,791.86518 C 464.61281,797.47613 464.12295,802.75312 463.15625,807.36518 C 463.13144,807.56987 463.08896,807.78535 463.06250,807.99018 C 461.36859,821.10459 456.30070,834.40798 447.09375,842.08393 C 418.90601,855.31320 431.92084,823.17621 412.40625,819.39643 C 398.18805,816.64250 393.79580,827.87477 392.43750,834.20893 L 392.43750,937.11518 L 494.03125,937.11518 C 500.23247,938.33344 512.27234,942.60425 509.43750,957.24018 C 505.65771,976.75478 473.55198,963.73994 486.78125,991.92768 C 494.45719,1001.1346 507.76059,1006.2025 520.87500,1007.8964 C 521.07982,1007.9229 521.29531,1007.9654 521.50000,1007.9902 C 526.11204,1008.9569 531.38905,1009.4467 537.00000,1009.2402 C 552.19944,1008.6806 569.24863,1003.5869 578.34375,992.67768 C 591.57301,964.48996 559.43604,977.50477 555.65625,957.99018 C 551.87645,938.47561 574.56250,937.39643 574.56250,937.39643 L 671.75000,937.11518 C 671.75000,937.11518 671.12499,838.86517 671.12500,838.86518 C 671.12500,838.86518 670.04582,816.17913 650.53125,819.95893 C 631.01666,823.73872 644.03147,855.87568 615.84375,842.64643 C 604.93455,833.55131 599.84078,816.50212 599.28125,801.30268 C 599.07469,795.69173 599.56454,790.41473 600.53125,785.80268 C 600.55606,785.59799 600.59853,785.38249 600.62500,785.17768 C 602.31891,772.06327 607.38679,758.75986 616.59375,751.08393 C 621.87895,748.60344 625.71958,747.70482 628.59375,747.92768 C 641.04849,748.89339 635.42564,770.66910 651.28125,773.74018 C 669.48915,777.26688 671.54254,758.40046 671.75000,755.77143 L 671.75000,657.36518 L 569.59375,657.36518 C 563.18816,655.88324 552.62952,651.37330 555.31250,637.52143 C 559.09228,618.00684 591.19802,631.02167 577.96875,602.83393 C 570.29280,593.62699 556.98941,588.55910 543.87500,586.86518 C 543.67017,586.83872 543.45469,586.79624 543.25000,586.77143 C 538.63795,585.80473 533.36095,585.31487 527.75000,585.52143 z "
       id="path2840"
       sodipodi:nodetypes="cccccccccccccccccccccccccccccccccccccccccccc"
       style="fill:#fe0000;fill-opacity:1.0000000;fill-rule:evenodd;stroke:#000000;stroke-width:12.500000;stroke-linejoin:round;stroke-dasharray:none" />
    <path
       d="M 248.75000,305.52142 C 233.55056,306.08096 216.50137,311.17473 207.40625,322.08392 C 194.17699,350.27165 226.31396,337.25683 230.09375,356.77142 C 233.87354,376.28601 211.18750,377.36517 211.18750,377.36517 L 211.18750,377.36517 L 113.43750,377.36517 C 113.43750,377.36517 113.56250,474.30269 113.56250,474.30268 C 113.56250,474.30268 114.64167,496.98871 134.15625,493.20893 C 150.01185,490.13785 144.38901,468.33089 156.84375,467.36518 C 159.71792,467.14232 163.55855,468.04094 168.84375,470.52143 C 179.75295,479.61655 184.84671,496.66574 185.40625,511.86518 C 185.61281,517.47613 185.12295,522.75312 184.15625,527.36518 C 184.13144,527.56987 184.08896,527.78535 184.06250,527.99018 C 182.36859,541.10459 177.30070,554.40798 168.09375,562.08393 C 139.90601,575.31320 152.92084,543.17621 133.40625,539.39643 C 119.18805,536.64250 114.79580,547.87477 113.43750,554.20893 L 113.43750,657.11518 L 215.03125,657.11518 C 221.23247,658.33344 233.27234,662.60425 230.43750,677.24018 C 226.65771,696.75478 194.55198,683.73994 207.78125,711.92768 C 215.45719,721.13464 228.76059,726.20252 241.87500,727.89643 C 242.07982,727.92290 242.29531,727.96537 242.50000,727.99018 C 247.11204,728.95689 252.38905,729.44674 258.00000,729.24018 C 273.19944,728.68065 290.24863,723.58688 299.34375,712.67768 C 312.57301,684.48996 280.43604,697.50477 276.65625,677.99018 C 272.87645,658.47561 295.56250,657.39643 295.56250,657.39643 L 392.75000,657.11518 C 392.75000,657.11518 392.12499,558.86517 392.12500,558.86518 C 392.12500,558.86518 391.04582,536.17913 371.53125,539.95893 C 352.01666,543.73872 365.03147,575.87568 336.84375,562.64643 C 325.93455,553.55131 320.84078,536.50212 320.28125,521.30268 C 320.07469,515.69173 320.56454,510.41473 321.53125,505.80268 C 321.55606,505.59799 321.59853,505.38249 321.62500,505.17768 C 323.31891,492.06327 328.38679,478.75986 337.59375,471.08393 C 342.87895,468.60344 346.71958,467.70482 349.59375,467.92768 C 362.04849,468.89339 356.42564,490.66910 372.28125,493.74018 C 390.48915,497.26688 392.54254,478.40046 392.75000,475.77143 L 392.75000,377.36517 L 290.59375,377.36517 C 284.18816,375.88323 273.62952,371.37329 276.31250,357.52142 C 280.09228,338.00683 312.19802,351.02166 298.96875,322.83392 C 291.29280,313.62698 277.98941,308.55909 264.87500,306.86517 C 264.67017,306.83871 264.45469,306.79623 264.25000,306.77142 C 259.63795,305.80472 254.36095,305.31486 248.75000,305.52142 z "
       id="path3568"
       sodipodi:nodetypes="cccccccccccccccccccccccccccccccccccccccccccc"
       style="fill:#0000ff;fill-opacity:1.0000000;fill-rule:evenodd;stroke:#000000;stroke-width:12.500000;stroke-linejoin:round;stroke-dasharray:none" />
    <path
       d="M 320.29669,520.97437 C 320.85623,536.17381 325.95000,553.22300 336.85919,562.31812 C 365.04692,575.54738 352.03210,543.41041 371.54669,539.63062 C 391.06128,535.85083 392.14044,558.53687 392.14044,558.53687 L 392.14044,558.53687 L 392.14044,656.28687 C 392.14044,656.28687 489.07795,656.16187 489.07794,656.16187 C 489.07794,656.16187 511.76397,655.08270 507.98419,635.56812 C 504.91311,619.71252 483.10615,625.33536 482.14044,612.88062 C 481.91758,610.00645 482.81620,606.16582 485.29669,600.88062 C 494.39181,589.97142 511.44100,584.87766 526.64044,584.31812 C 532.25139,584.11156 537.52838,584.60142 542.14044,585.56812 C 542.34513,585.59293 542.56061,585.63541 542.76544,585.66187 C 555.87985,587.35578 569.18324,592.42367 576.85919,601.63062 C 590.08846,629.81836 557.95147,616.80353 554.17169,636.31812 C 551.41776,650.53632 562.65003,654.92857 568.98419,656.28687 L 671.89044,656.28687 L 671.89044,554.69312 C 673.10870,548.49190 677.37951,536.45203 692.01544,539.28687 C 711.53004,543.06666 698.51520,575.17239 726.70294,561.94312 C 735.90990,554.26718 740.97778,540.96378 742.67169,527.84937 C 742.69816,527.64455 742.74063,527.42906 742.76544,527.22437 C 743.73215,522.61233 744.22200,517.33532 744.01544,511.72437 C 743.45591,496.52493 738.36214,479.47574 727.45294,470.38062 C 699.26522,457.15136 712.28003,489.28833 692.76544,493.06812 C 673.25087,496.84792 672.17169,474.16187 672.17169,474.16187 L 671.89044,376.97437 C 671.89044,376.97437 573.64043,377.59938 573.64044,377.59937 C 573.64044,377.59937 550.95439,378.67855 554.73419,398.19312 C 558.51398,417.70771 590.65094,404.69290 577.42169,432.88062 C 568.32657,443.78982 551.27738,448.88359 536.07794,449.44312 C 530.46699,449.64968 525.18999,449.15983 520.57794,448.19312 C 520.37325,448.16831 520.15775,448.12584 519.95294,448.09937 C 506.83853,446.40546 493.53512,441.33758 485.85919,432.13062 C 483.37870,426.84542 482.48008,423.00479 482.70294,420.13062 C 483.66865,407.67588 505.44436,413.29873 508.51544,397.44312 C 512.04214,379.23522 493.17572,377.18183 490.54669,376.97437 L 392.14044,376.97437 L 392.14044,479.13062 C 390.65850,485.53621 386.14856,496.09485 372.29669,493.41187 C 352.78210,489.63209 365.79693,457.52635 337.60919,470.75562 C 328.40225,478.43157 323.33436,491.73496 321.64044,504.84937 C 321.61398,505.05420 321.57150,505.26968 321.54669,505.47437 C 320.57999,510.08642 320.09013,515.36342 320.29669,520.97437 z "
       id="path4296"
       sodipodi:nodetypes="cccccccccccccccccccccccccccccccccccccccccccc"
       style="fill:#00ffff;fill-opacity:1.0000000;fill-rule:evenodd;stroke:#000000;stroke-width:12.500000;stroke-linejoin:round;stroke-dasharray:none" />
    <path
       d="M 806.56250,304.52142 C 791.36306,305.08096 774.31387,310.17473 765.21875,321.08392 C 751.98949,349.27165 784.12646,336.25683 787.90625,355.77142 C 791.68604,375.28601 769.00000,376.36517 769.00000,376.36517 L 769.00000,376.36517 L 671.25000,376.36517 C 671.25000,376.36517 671.37500,473.30269 671.37500,473.30268 C 671.37500,473.30268 672.45417,495.98871 691.96875,492.20893 C 707.82435,489.13785 702.20151,467.33089 714.65625,466.36518 C 717.53042,466.14232 721.37105,467.04094 726.65625,469.52143 C 737.56545,478.61655 742.65921,495.66574 743.21875,510.86518 C 743.42531,516.47613 742.93545,521.75312 741.96875,526.36518 C 741.94394,526.56987 741.90146,526.78535 741.87500,526.99018 C 740.18109,540.10459 735.11320,553.40798 725.90625,561.08393 C 697.71851,574.31320 710.73334,542.17621 691.21875,538.39643 C 677.00055,535.64250 672.60830,546.87477 671.25000,553.20893 L 671.25000,656.11518 L 772.84375,656.11518 C 779.04497,657.33344 791.08484,661.60425 788.25000,676.24018 C 784.47021,695.75478 752.36448,682.73994 765.59375,710.92768 C 773.26969,720.13464 786.57309,725.20252 799.68750,726.89643 C 799.89232,726.92290 800.10781,726.96537 800.31250,726.99018 C 804.92454,727.95689 810.20155,728.44674 815.81250,728.24018 C 831.01194,727.68065 848.06113,722.58688 857.15625,711.67768 C 870.38551,683.48996 838.24854,696.50477 834.46875,676.99018 C 830.68895,657.47561 853.37500,656.39643 853.37500,656.39643 L 950.56250,656.11518 C 950.56250,656.11518 949.93749,557.86517 949.93750,557.86518 C 949.93750,557.86518 948.85832,535.17913 929.34375,538.95893 C 909.82916,542.73872 922.84397,574.87568 894.65625,561.64643 C 883.74705,552.55131 878.65328,535.50212 878.09375,520.30268 C 877.88719,514.69173 878.37704,509.41473 879.34375,504.80268 C 879.36856,504.59799 879.41103,504.38249 879.43750,504.17768 C 881.13141,491.06327 886.19929,477.75986 895.40625,470.08393 C 900.69145,467.60344 904.53208,466.70482 907.40625,466.92768 C 919.86099,467.89339 914.23814,489.66910 930.09375,492.74018 C 948.30165,496.26688 950.35504,477.40046 950.56250,474.77143 L 950.56250,376.36517 L 848.40625,376.36517 C 842.00066,374.88323 831.44202,370.37329 834.12500,356.52142 C 837.90478,337.00683 870.01052,350.02166 856.78125,321.83392 C 849.10530,312.62698 835.80191,307.55909 822.68750,305.86517 C 822.48267,305.83871 822.26719,305.79623 822.06250,305.77142 C 817.45045,304.80472 812.17345,304.31486 806.56250,304.52142 z "
       id="path5024"
       sodipodi:nodetypes="cccccccccccccccccccccccccccccccccccccccccccc"
       style="fill:#fe0000;fill-opacity:1.0000000;fill-rule:evenodd;stroke:#000000;stroke-width:12.500000;stroke-linejoin:round;stroke-dasharray:none" />
    <path
       d="M 598.98456,801.78687 C 599.54410,816.98631 604.63787,834.03550 615.54706,843.13062 C 643.73479,856.35988 630.71997,824.22291 650.23456,820.44312 C 669.74915,816.66333 670.82831,839.34937 670.82831,839.34937 L 670.82831,839.34937 L 670.82831,937.09937 C 670.82831,937.09937 767.76582,936.97437 767.76581,936.97437 C 767.76581,936.97437 790.45184,935.89520 786.67206,916.38062 C 783.60098,900.52502 761.79402,906.14786 760.82831,893.69312 C 760.60545,890.81895 761.50407,886.97832 763.98456,881.69312 C 773.07968,870.78392 790.12887,865.69016 805.32831,865.13062 C 810.93926,864.92406 816.21625,865.41392 820.82831,866.38062 C 821.03300,866.40543 821.24848,866.44791 821.45331,866.47437 C 834.56772,868.16828 847.87111,873.23617 855.54706,882.44312 C 868.77633,910.63086 836.63934,897.61603 832.85956,917.13062 C 830.10563,931.34882 841.33790,935.74107 847.67206,937.09937 L 950.57831,937.09937 L 950.57831,835.50562 C 951.79657,829.30440 956.06738,817.26453 970.70331,820.09937 C 990.21791,823.87916 977.20307,855.98489 1005.3908,842.75562 C 1014.5978,835.07968 1019.6656,821.77628 1021.3596,808.66187 C 1021.3860,808.45705 1021.4285,808.24156 1021.4533,808.03687 C 1022.4200,803.42483 1022.9099,798.14782 1022.7033,792.53687 C 1022.1438,777.33743 1017.0500,760.28824 1006.1408,751.19312 C 977.95309,737.96386 990.96790,770.10083 971.45331,773.88062 C 951.93874,777.66042 950.85956,754.97437 950.85956,754.97437 L 950.57831,657.78687 C 950.57831,657.78687 852.32830,658.41188 852.32831,658.41187 C 852.32831,658.41187 829.64226,659.49105 833.42206,679.00562 C 837.20185,698.52021 869.33881,685.50540 856.10956,713.69312 C 847.01444,724.60232 829.96525,729.69609 814.76581,730.25562 C 809.15486,730.46218 803.87786,729.97233 799.26581,729.00562 C 799.06112,728.98081 798.84562,728.93834 798.64081,728.91187 C 785.52640,727.21796 772.22299,722.15008 764.54706,712.94312 C 762.06657,707.65792 761.16795,703.81729 761.39081,700.94312 C 762.35652,688.48838 784.13223,694.11123 787.20331,678.25562 C 790.73001,660.04772 771.86359,657.99433 769.23456,657.78687 L 670.82831,657.78687 L 670.82831,759.94312 C 669.34637,766.34871 664.83643,776.90735 650.98456,774.22437 C 631.46997,770.44459 644.48480,738.33885 616.29706,751.56812 C 607.09012,759.24407 602.02223,772.54746 600.32831,785.66187 C 600.30185,785.86670 600.25937,786.08218 600.23456,786.28687 C 599.26786,790.89892 598.77800,796.17592 598.98456,801.78687 z "
       id="path5026"
       sodipodi:nodetypes="cccccccccccccccccccccccccccccccccccccccccccc"
       style="fill:#feff00;fill-opacity:1.0000000;fill-rule:evenodd;stroke:#000000;stroke-width:12.500000;stroke-linejoin:round;stroke-dasharray:none" />
    <path
       d="M 248.75000,864.52142 C 233.55056,865.08096 216.50137,870.17473 207.40625,881.08392 C 194.17699,909.27165 226.31396,896.25683 230.09375,915.77143 C 233.87354,935.28602 211.18750,936.36518 211.18750,936.36518 L 211.18750,936.36518 L 113.43750,936.36518 C 113.43750,936.36518 113.56250,1033.3027 113.56250,1033.3027 C 113.56250,1033.3027 114.64167,1055.9887 134.15625,1052.2089 C 150.01185,1049.1378 144.38901,1027.3309 156.84375,1026.3652 C 159.71792,1026.1423 163.55855,1027.0409 168.84375,1029.5214 C 179.75295,1038.6165 184.84671,1055.6657 185.40625,1070.8652 C 185.61281,1076.4761 185.12295,1081.7531 184.15625,1086.3652 C 184.13144,1086.5699 184.08896,1086.7853 184.06250,1086.9902 C 182.36859,1100.1046 177.30070,1113.4080 168.09375,1121.0839 C 139.90601,1134.3132 152.92084,1102.1762 133.40625,1098.3964 C 119.18805,1095.6425 114.79580,1106.8748 113.43750,1113.2089 L 113.43750,1216.1152 L 215.03125,1216.1152 C 221.23247,1217.3334 233.27234,1221.6042 230.43750,1236.2402 C 226.65771,1255.7548 194.55198,1242.7399 207.78125,1270.9277 C 215.45719,1280.1346 228.76059,1285.2025 241.87500,1286.8964 C 242.07982,1286.9229 242.29531,1286.9654 242.50000,1286.9902 C 247.11204,1287.9569 252.38905,1288.4467 258.00000,1288.2402 C 273.19944,1287.6806 290.24863,1282.5869 299.34375,1271.6777 C 312.57301,1243.4900 280.43604,1256.5048 276.65625,1236.9902 C 272.87645,1217.4756 295.56250,1216.3964 295.56250,1216.3964 L 392.75000,1216.1152 C 392.75000,1216.1152 392.12499,1117.8652 392.12500,1117.8652 C 392.12500,1117.8652 391.04582,1095.1791 371.53125,1098.9589 C 352.01666,1102.7387 365.03147,1134.8757 336.84375,1121.6464 C 325.93455,1112.5513 320.84078,1095.5021 320.28125,1080.3027 C 320.07469,1074.6917 320.56454,1069.4147 321.53125,1064.8027 C 321.55606,1064.5980 321.59853,1064.3825 321.62500,1064.1777 C 323.31891,1051.0633 328.38679,1037.7599 337.59375,1030.0839 C 342.87895,1027.6034 346.71958,1026.7048 349.59375,1026.9277 C 362.04849,1027.8934 356.42564,1049.6691 372.28125,1052.7402 C 390.48915,1056.2669 392.54254,1037.4005 392.75000,1034.7714 L 392.75000,936.36518 L 290.59375,936.36518 C 284.18816,934.88324 273.62952,930.37330 276.31250,916.52143 C 280.09228,897.00683 312.19802,910.02166 298.96875,881.83392 C 291.29280,872.62698 277.98941,867.55909 264.87500,865.86517 C 264.67017,865.83871 264.45469,865.79623 264.25000,865.77142 C 259.63795,864.80472 254.36095,864.31486 248.75000,864.52142 z "
       id="path5028"
       sodipodi:nodetypes="cccccccccccccccccccccccccccccccccccccccccccc"
       style="fill:#0000ff;fill-opacity:1.0000000;fill-rule:evenodd;stroke:#000000;stroke-width:12.500000;stroke-linejoin:round;stroke-dasharray:none" />
    <path
       d="M 318.29669,1080.9744 C 318.85623,1096.1738 323.95000,1113.2230 334.85919,1122.3181 C 363.04692,1135.5474 350.03210,1103.4104 369.54669,1099.6306 C 389.06128,1095.8508 390.14044,1118.5369 390.14044,1118.5369 L 390.14044,1118.5369 L 390.14044,1216.2869 C 390.14044,1216.2869 487.07795,1216.1619 487.07794,1216.1619 C 487.07794,1216.1619 509.76397,1215.0827 505.98419,1195.5681 C 502.91311,1179.7125 481.10615,1185.3354 480.14044,1172.8806 C 479.91758,1170.0064 480.81620,1166.1658 483.29669,1160.8806 C 492.39181,1149.9714 509.44100,1144.8777 524.64044,1144.3181 C 530.25139,1144.1116 535.52838,1144.6014 540.14044,1145.5681 C 540.34513,1145.5929 540.56061,1145.6354 540.76544,1145.6619 C 553.87985,1147.3558 567.18324,1152.4237 574.85919,1161.6306 C 588.08846,1189.8184 555.95147,1176.8035 552.17169,1196.3181 C 549.41776,1210.5363 560.65003,1214.9286 566.98419,1216.2869 L 669.89044,1216.2869 L 669.89044,1114.6931 C 671.10870,1108.4919 675.37951,1096.4520 690.01544,1099.2869 C 709.53004,1103.0667 696.51520,1135.1724 724.70294,1121.9431 C 733.90990,1114.2672 738.97778,1100.9638 740.67169,1087.8494 C 740.69816,1087.6445 740.74063,1087.4291 740.76544,1087.2244 C 741.73215,1082.6123 742.22200,1077.3353 742.01544,1071.7244 C 741.45591,1056.5249 736.36214,1039.4757 725.45294,1030.3806 C 697.26522,1017.1514 710.28003,1049.2883 690.76544,1053.0681 C 671.25087,1056.8479 670.17169,1034.1619 670.17169,1034.1619 L 669.89044,936.97437 C 669.89044,936.97437 571.64043,937.59938 571.64044,937.59937 C 571.64044,937.59937 548.95439,938.67855 552.73419,958.19312 C 556.51398,977.70771 588.65094,964.69290 575.42169,992.88062 C 566.32657,1003.7898 549.27738,1008.8836 534.07794,1009.4431 C 528.46699,1009.6497 523.18999,1009.1598 518.57794,1008.1931 C 518.37325,1008.1683 518.15775,1008.1258 517.95294,1008.0994 C 504.83853,1006.4055 491.53512,1001.3376 483.85919,992.13062 C 481.37870,986.84542 480.48008,983.00479 480.70294,980.13062 C 481.66865,967.67588 503.44436,973.29873 506.51544,957.44312 C 510.04214,939.23522 491.17572,937.18183 488.54669,936.97437 L 390.14044,936.97437 L 390.14044,1039.1306 C 388.65850,1045.5362 384.14856,1056.0948 370.29669,1053.4119 C 350.78210,1049.6321 363.79693,1017.5263 335.60919,1030.7556 C 326.40225,1038.4316 321.33436,1051.7350 319.64044,1064.8494 C 319.61398,1065.0542 319.57150,1065.2697 319.54669,1065.4744 C 318.57999,1070.0864 318.09013,1075.3634 318.29669,1080.9744 z "
       id="path5030"
       sodipodi:nodetypes="cccccccccccccccccccccccccccccccccccccccccccc"
       style="fill:#feff00;fill-opacity:1.0000000;fill-rule:evenodd;stroke:#000000;stroke-width:12.500000;stroke-linejoin:round;stroke-dasharray:none" />
    <path
       d="M 806.56250,864.83356 C 791.36306,865.39310 774.31387,870.48687 765.21875,881.39606 C 751.98949,909.58379 784.12646,896.56897 787.90625,916.08356 C 791.68604,935.59815 769.00000,936.67731 769.00000,936.67731 L 769.00000,936.67731 L 671.25000,936.67731 C 671.25000,936.67731 671.37500,1033.6148 671.37500,1033.6148 C 671.37500,1033.6148 672.45417,1056.3008 691.96875,1052.5211 C 707.82435,1049.4500 702.20151,1027.6430 714.65625,1026.6773 C 717.53042,1026.4545 721.37105,1027.3531 726.65625,1029.8336 C 737.56545,1038.9287 742.65921,1055.9779 743.21875,1071.1773 C 743.42531,1076.7883 742.93545,1082.0653 741.96875,1086.6773 C 741.94394,1086.8820 741.90146,1087.0975 741.87500,1087.3023 C 740.18109,1100.4167 735.11320,1113.7201 725.90625,1121.3961 C 697.71851,1134.6253 710.73334,1102.4883 691.21875,1098.7086 C 677.00055,1095.9546 672.60830,1107.1869 671.25000,1113.5211 L 671.25000,1216.4273 L 772.84375,1216.4273 C 779.04497,1217.6456 791.08484,1221.9164 788.25000,1236.5523 C 784.47021,1256.0669 752.36448,1243.0521 765.59375,1271.2398 C 773.26969,1280.4468 786.57309,1285.5147 799.68750,1287.2086 C 799.89232,1287.2350 800.10781,1287.2775 800.31250,1287.3023 C 804.92454,1288.2690 810.20155,1288.7589 815.81250,1288.5523 C 831.01194,1287.9928 848.06113,1282.8990 857.15625,1271.9898 C 870.38551,1243.8021 838.24854,1256.8169 834.46875,1237.3023 C 830.68895,1217.7877 853.37500,1216.7086 853.37500,1216.7086 L 950.56250,1216.4273 C 950.56250,1216.4273 949.93749,1118.1773 949.93750,1118.1773 C 949.93750,1118.1773 948.85832,1095.4913 929.34375,1099.2711 C 909.82916,1103.0509 922.84397,1135.1878 894.65625,1121.9586 C 883.74705,1112.8634 878.65328,1095.8143 878.09375,1080.6148 C 877.88719,1075.0039 878.37704,1069.7269 879.34375,1065.1148 C 879.36856,1064.9101 879.41103,1064.6946 879.43750,1064.4898 C 881.13141,1051.3754 886.19929,1038.0720 895.40625,1030.3961 C 900.69145,1027.9156 904.53208,1027.0170 907.40625,1027.2398 C 919.86099,1028.2055 914.23814,1049.9812 930.09375,1053.0523 C 948.30165,1056.5790 950.35504,1037.7126 950.56250,1035.0836 L 950.56250,936.67731 L 848.40625,936.67731 C 842.00066,935.19537 831.44202,930.68543 834.12500,916.83356 C 837.90478,897.31897 870.01052,910.33380 856.78125,882.14606 C 849.10530,872.93912 835.80191,867.87123 822.68750,866.17731 C 822.48267,866.15085 822.26719,866.10837 822.06250,866.08356 C 817.45045,865.11686 812.17345,864.62700 806.56250,864.83356 z "
       id="path5032"
       sodipodi:nodetypes="cccccccccccccccccccccccccccccccccccccccccccc"
       style="fill:#fe0000;fill-opacity:1.0000000;fill-rule:evenodd;stroke:#000000;stroke-width:12.500000;stroke-linejoin:round;stroke-dasharray:none" />
    <path
       d="M 527.56250,25.833555 C 512.36306,26.393095 495.31387,31.486865 486.21875,42.396055 C 472.98949,70.583785 505.12646,57.568965 508.90625,77.083555 C 512.68604,96.598145 490.00000,97.677305 490.00000,97.677305 L 490.00000,97.677305 L 392.25000,97.677305 C 392.25000,97.677305 392.37500,194.61482 392.37500,194.61481 C 392.37500,194.61481 393.45417,217.30084 412.96875,213.52106 C 428.82435,210.44998 423.20151,188.64303 435.65625,187.67732 C 438.53042,187.45446 442.37105,188.35308 447.65625,190.83357 C 458.56545,199.92868 463.65921,216.97787 464.21875,232.17731 C 464.42531,237.78826 463.93545,243.06525 462.96875,247.67731 C 462.94394,247.88200 462.90146,248.09748 462.87500,248.30231 C 461.18109,261.41672 456.11320,274.72011 446.90625,282.39606 C 418.71851,295.62533 431.73334,263.48834 412.21875,259.70856 C 398.00055,256.95463 393.60830,268.18690 392.25000,274.52106 L 392.25000,377.42731 L 493.84375,377.42731 C 500.04497,378.64557 512.08484,382.91638 509.25000,397.55232 C 505.47021,417.06692 473.36448,404.05208 486.59375,432.23982 C 494.26969,441.44678 507.57309,446.51466 520.68750,448.20857 C 520.89232,448.23504 521.10781,448.27751 521.31250,448.30232 C 525.92454,449.26903 531.20155,449.75888 536.81250,449.55232 C 552.01194,448.99279 569.06113,443.89902 578.15625,432.98982 C 591.38551,404.80210 559.24854,417.81691 555.46875,398.30232 C 551.68895,378.78774 574.37500,377.70856 574.37500,377.70856 L 671.56250,377.42731 C 671.56250,377.42731 670.93749,279.17730 670.93750,279.17731 C 670.93750,279.17731 669.85832,256.49126 650.34375,260.27106 C 630.82916,264.05085 643.84397,296.18781 615.65625,282.95856 C 604.74705,273.86344 599.65328,256.81425 599.09375,241.61481 C 598.88719,236.00386 599.37704,230.72686 600.34375,226.11481 C 600.36856,225.91012 600.41103,225.69462 600.43750,225.48981 C 602.13141,212.37540 607.19929,199.07199 616.40625,191.39607 C 621.69145,188.91558 625.53208,188.01696 628.40625,188.23982 C 640.86099,189.20553 635.23814,210.98123 651.09375,214.05231 C 669.30165,217.57901 671.35504,198.71259 671.56250,196.08356 L 671.56250,97.677305 L 569.40625,97.677305 C 563.00066,96.195365 552.44202,91.685425 555.12500,77.833555 C 558.90478,58.318965 591.01052,71.333795 577.78125,43.146055 C 570.10530,33.939115 556.80191,28.871225 543.68750,27.177305 C 543.48267,27.150845 543.26719,27.108365 543.06250,27.083555 C 538.45045,26.116855 533.17345,25.626995 527.56250,25.833555 z "
       id="path5034"
       sodipodi:nodetypes="cccccccccccccccccccccccccccccccccccccccccccc"
       style="fill:#0000ff;fill-opacity:1.0000000;fill-rule:evenodd;stroke:#000000;stroke-width:12.500000;stroke-linejoin:round;stroke-dasharray:none" />
    <path
       d="M 41.984559,241.97437 C 42.544099,257.17381 47.637869,274.22300 58.547059,283.31812 C 86.734789,296.54738 73.719969,264.41041 93.234559,260.63062 C 112.74915,256.85083 113.82831,279.53687 113.82831,279.53687 L 113.82831,279.53687 L 113.82831,377.28687 C 113.82831,377.28687 210.76582,377.16187 210.76581,377.16187 C 210.76581,377.16187 233.45184,376.08270 229.67206,356.56812 C 226.60098,340.71252 204.79402,346.33536 203.82831,333.88062 C 203.60545,331.00645 204.50407,327.16582 206.98456,321.88062 C 216.07968,310.97142 233.12887,305.87766 248.32831,305.31812 C 253.93926,305.11156 259.21625,305.60142 263.82831,306.56812 C 264.03300,306.59293 264.24848,306.63541 264.45331,306.66187 C 277.56772,308.35578 290.87111,313.42367 298.54706,322.63062 C 311.77633,350.81836 279.63934,337.80353 275.85956,357.31812 C 273.10563,371.53632 284.33790,375.92857 290.67206,377.28687 L 393.57831,377.28687 L 393.57831,275.69312 C 394.79657,269.49190 399.06738,257.45203 413.70331,260.28687 C 433.21791,264.06666 420.20307,296.17239 448.39081,282.94312 C 457.59777,275.26718 462.66565,261.96378 464.35956,248.84937 C 464.38603,248.64455 464.42850,248.42906 464.45331,248.22437 C 465.42002,243.61233 465.90987,238.33532 465.70331,232.72437 C 465.14378,217.52493 460.05001,200.47574 449.14081,191.38062 C 420.95309,178.15136 433.96790,210.28833 414.45331,214.06812 C 394.93874,217.84792 393.85956,195.16187 393.85956,195.16187 L 393.57831,97.974365 C 393.57831,97.974365 295.32830,98.599375 295.32831,98.599365 C 295.32831,98.599365 272.64226,99.678545 276.42206,119.19312 C 280.20185,138.70771 312.33881,125.69290 299.10956,153.88062 C 290.01444,164.78982 272.96525,169.88359 257.76581,170.44312 C 252.15486,170.64968 246.87786,170.15983 242.26581,169.19312 C 242.06112,169.16831 241.84562,169.12584 241.64081,169.09937 C 228.52640,167.40546 215.22299,162.33758 207.54706,153.13062 C 205.06657,147.84542 204.16795,144.00479 204.39081,141.13062 C 205.35652,128.67588 227.13223,134.29873 230.20331,118.44312 C 233.73001,100.23522 214.86359,98.181825 212.23456,97.974365 L 113.82831,97.974365 L 113.82831,200.13062 C 112.34637,206.53621 107.83643,217.09485 93.984559,214.41187 C 74.469969,210.63209 87.484799,178.52635 59.297059,191.75562 C 50.090119,199.43157 45.022229,212.73496 43.328309,225.84937 C 43.301849,226.05420 43.259369,226.26968 43.234559,226.47437 C 42.267859,231.08642 41.777999,236.36342 41.984559,241.97437 z "
       id="path5036"
       sodipodi:nodetypes="cccccccccccccccccccccccccccccccccccccccccccc"
       style="fill:#feff00;fill-opacity:1.0000000;fill-rule:evenodd;stroke:#000000;stroke-width:12.500000;stroke-linejoin:round;stroke-dasharray:none" />
    <path
       d="M 598.98456,240.97437 C 599.54410,256.17381 604.63787,273.22300 615.54706,282.31812 C 643.73479,295.54738 630.71997,263.41041 650.23456,259.63062 C 669.74915,255.85083 670.82831,278.53687 670.82831,278.53687 L 670.82831,278.53687 L 670.82831,376.28687 C 670.82831,376.28687 767.76582,376.16187 767.76581,376.16187 C 767.76581,376.16187 790.45184,375.08270 786.67206,355.56812 C 783.60098,339.71252 761.79402,345.33536 760.82831,332.88062 C 760.60545,330.00645 761.50407,326.16582 763.98456,320.88062 C 773.07968,309.97142 790.12887,304.87766 805.32831,304.31812 C 810.93926,304.11156 816.21625,304.60142 820.82831,305.56812 C 821.03300,305.59293 821.24848,305.63541 821.45331,305.66187 C 834.56772,307.35578 847.87111,312.42367 855.54706,321.63062 C 868.77633,349.81836 836.63934,336.80353 832.85956,356.31812 C 830.10563,370.53632 841.33790,374.92857 847.67206,376.28687 L 950.57831,376.28687 L 950.57831,274.69312 C 951.79657,268.49190 956.06738,256.45203 970.70331,259.28687 C 990.21791,263.06666 977.20307,295.17239 1005.3908,281.94312 C 1014.5978,274.26718 1019.6656,260.96378 1021.3596,247.84937 C 1021.3860,247.64455 1021.4285,247.42906 1021.4533,247.22437 C 1022.4200,242.61233 1022.9099,237.33532 1022.7033,231.72437 C 1022.1438,216.52493 1017.0500,199.47574 1006.1408,190.38062 C 977.95309,177.15136 990.96790,209.28833 971.45331,213.06812 C 951.93874,216.84792 950.85956,194.16187 950.85956,194.16187 L 950.57831,96.974365 C 950.57831,96.974365 852.32830,97.599375 852.32831,97.599365 C 852.32831,97.599365 829.64226,98.678545 833.42206,118.19312 C 837.20185,137.70771 869.33881,124.69290 856.10956,152.88062 C 847.01444,163.78982 829.96525,168.88359 814.76581,169.44312 C 809.15486,169.64968 803.87786,169.15983 799.26581,168.19312 C 799.06112,168.16831 798.84562,168.12584 798.64081,168.09937 C 785.52640,166.40546 772.22299,161.33758 764.54706,152.13062 C 762.06657,146.84542 761.16795,143.00479 761.39081,140.13062 C 762.35652,127.67588 784.13223,133.29873 787.20331,117.44312 C 790.73001,99.235215 771.86359,97.181825 769.23456,96.974365 L 670.82831,96.974365 L 670.82831,199.13062 C 669.34637,205.53621 664.83643,216.09485 650.98456,213.41187 C 631.46997,209.63209 644.48480,177.52635 616.29706,190.75562 C 607.09012,198.43157 602.02223,211.73496 600.32831,224.84937 C 600.30185,225.05420 600.25937,225.26968 600.23456,225.47437 C 599.26786,230.08642 598.77800,235.36342 598.98456,240.97437 z "
       id="path5038"
       sodipodi:nodetypes="cccccccccccccccccccccccccccccccccccccccccccc"
       style="fill:#00ffff;fill-opacity:1.0000000;fill-rule:evenodd;stroke:#000000;stroke-width:12.500000;stroke-linejoin:round;stroke-dasharray:none" />
    <path
       d="M 527.31250,1144.0211 C 512.11306,1144.5806 495.06387,1149.6744 485.96875,1160.5836 C 472.73949,1188.7713 504.87646,1175.7565 508.65625,1195.2711 C 512.43604,1214.7857 489.75000,1215.8648 489.75000,1215.8648 L 489.75000,1215.8648 L 392.00000,1215.8648 C 392.00000,1215.8648 392.12500,1312.8023 392.12500,1312.8023 C 392.12500,1312.8023 393.20417,1335.4883 412.71875,1331.7086 C 428.57435,1328.6375 422.95151,1306.8305 435.40625,1305.8648 C 438.28042,1305.6420 442.12105,1306.5406 447.40625,1309.0211 C 458.31545,1318.1162 463.40921,1335.1654 463.96875,1350.3648 C 464.17531,1355.9758 463.68545,1361.2528 462.71875,1365.8648 C 462.69394,1366.0695 462.65146,1366.2850 462.62500,1366.4898 C 460.93109,1379.6042 455.86320,1392.9076 446.65625,1400.5836 C 418.46851,1413.8128 431.48334,1381.6758 411.96875,1377.8961 C 397.75055,1375.1421 393.35830,1386.3744 392.00000,1392.7086 L 392.00000,1495.6148 L 493.59375,1495.6148 C 499.79497,1496.8331 511.83484,1501.1039 509.00000,1515.7398 C 505.22021,1535.2544 473.11448,1522.2396 486.34375,1550.4273 C 494.01969,1559.6343 507.32309,1564.7022 520.43750,1566.3961 C 520.64232,1566.4225 520.85781,1566.4650 521.06250,1566.4898 C 525.67454,1567.4565 530.95155,1567.9464 536.56250,1567.7398 C 551.76194,1567.1803 568.81113,1562.0865 577.90625,1551.1773 C 591.13551,1522.9896 558.99854,1536.0044 555.21875,1516.4898 C 551.43895,1496.9752 574.12500,1495.8961 574.12500,1495.8961 L 671.31250,1495.6148 C 671.31250,1495.6148 670.68749,1397.3648 670.68750,1397.3648 C 670.68750,1397.3648 669.60832,1374.6788 650.09375,1378.4586 C 630.57916,1382.2384 643.59397,1414.3753 615.40625,1401.1461 C 604.49705,1392.0509 599.40328,1375.0018 598.84375,1359.8023 C 598.63719,1354.1914 599.12704,1348.9144 600.09375,1344.3023 C 600.11856,1344.0976 600.16103,1343.8821 600.18750,1343.6773 C 601.88141,1330.5629 606.94929,1317.2595 616.15625,1309.5836 C 621.44145,1307.1031 625.28208,1306.2045 628.15625,1306.4273 C 640.61099,1307.3930 634.98814,1329.1687 650.84375,1332.2398 C 669.05165,1335.7665 671.10504,1316.9001 671.31250,1314.2711 L 671.31250,1215.8648 L 569.15625,1215.8648 C 562.75066,1214.3829 552.19202,1209.8729 554.87500,1196.0211 C 558.65478,1176.5065 590.76052,1189.5213 577.53125,1161.3336 C 569.85530,1152.1266 556.55191,1147.0587 543.43750,1145.3648 C 543.23267,1145.3384 543.01719,1145.2959 542.81250,1145.2711 C 538.20045,1144.3044 532.92345,1143.8145 527.31250,1144.0211 z "
       id="path5040"
       sodipodi:nodetypes="cccccccccccccccccccccccccccccccccccccccccccc"
       style="fill:#fe0000;fill-opacity:1.0000000;fill-rule:evenodd;stroke:#000000;stroke-width:12.500000;stroke-linejoin:round;stroke-dasharray:none" />
    <path
       d="M 40.984550,1359.1619 C 41.544090,1374.3613 46.637860,1391.4105 57.547050,1400.5056 C 85.734780,1413.7349 72.719960,1381.5979 92.234550,1377.8181 C 111.74915,1374.0383 112.82831,1396.7244 112.82831,1396.7244 L 112.82831,1396.7244 L 112.82831,1494.4744 C 112.82831,1494.4744 209.76582,1494.3494 209.76581,1494.3494 C 209.76581,1494.3494 232.45184,1493.2702 228.67206,1473.7556 C 225.60098,1457.9000 203.79402,1463.5229 202.82831,1451.0681 C 202.60545,1448.1940 203.50407,1444.3533 205.98456,1439.0681 C 215.07968,1428.1589 232.12887,1423.0652 247.32831,1422.5056 C 252.93926,1422.2991 258.21625,1422.7889 262.82831,1423.7556 C 263.03300,1423.7804 263.24848,1423.8229 263.45331,1423.8494 C 276.56772,1425.5433 289.87111,1430.6112 297.54706,1439.8181 C 310.77633,1468.0059 278.63934,1454.9910 274.85956,1474.5056 C 272.10563,1488.7238 283.33790,1493.1161 289.67206,1494.4744 L 392.57831,1494.4744 L 392.57831,1392.8806 C 393.79657,1386.6794 398.06738,1374.6395 412.70331,1377.4744 C 432.21791,1381.2542 419.20307,1413.3599 447.39081,1400.1306 C 456.59777,1392.4547 461.66565,1379.1513 463.35956,1366.0369 C 463.38603,1365.8321 463.42850,1365.6166 463.45331,1365.4119 C 464.42002,1360.7998 464.90987,1355.5228 464.70331,1349.9119 C 464.14378,1334.7124 459.05001,1317.6632 448.14081,1308.5681 C 419.95309,1295.3389 432.96790,1327.4758 413.45331,1331.2556 C 393.93874,1335.0354 392.85956,1312.3494 392.85956,1312.3494 L 392.57831,1215.1619 C 392.57831,1215.1619 294.32830,1215.7869 294.32831,1215.7869 C 294.32831,1215.7869 271.64226,1216.8660 275.42206,1236.3806 C 279.20185,1255.8952 311.33881,1242.8804 298.10956,1271.0681 C 289.01444,1281.9773 271.96525,1287.0711 256.76581,1287.6306 C 251.15486,1287.8372 245.87786,1287.3473 241.26581,1286.3806 C 241.06112,1286.3558 240.84562,1286.3133 240.64081,1286.2869 C 227.52640,1284.5930 214.22299,1279.5251 206.54706,1270.3181 C 204.06657,1265.0329 203.16795,1261.1923 203.39081,1258.3181 C 204.35652,1245.8634 226.13223,1251.4862 229.20331,1235.6306 C 232.73001,1217.4227 213.86359,1215.3693 211.23456,1215.1619 L 112.82831,1215.1619 L 112.82831,1317.3181 C 111.34637,1323.7237 106.83643,1334.2824 92.984550,1331.5994 C 73.469960,1327.8196 86.484790,1295.7139 58.297050,1308.9431 C 49.090110,1316.6191 44.022220,1329.9225 42.328300,1343.0369 C 42.301840,1343.2417 42.259360,1343.4572 42.234550,1343.6619 C 41.267850,1348.2739 40.777990,1353.5509 40.984550,1359.1619 z "
       id="path5042"
       sodipodi:nodetypes="cccccccccccccccccccccccccccccccccccccccccccc"
       style="fill:#feff00;fill-opacity:1.0000000;fill-rule:evenodd;stroke:#000000;stroke-width:12.500000;stroke-linejoin:round;stroke-dasharray:none" />
    <path
       d="M 1022.7033,1350.0369 C 1022.1438,1334.8375 1017.0500,1317.7883 1006.1408,1308.6932 C 977.95316,1295.4639 990.96796,1327.6009 971.45336,1331.3807 C 951.93876,1335.1605 950.85956,1312.4744 950.85956,1312.4744 L 950.85956,1312.4744 L 950.85956,1214.7244 C 950.85956,1214.7244 853.92211,1214.8494 853.92211,1214.8494 C 853.92211,1214.8494 831.23611,1215.9286 835.01591,1235.4432 C 838.08701,1251.2988 859.89391,1245.6760 860.85961,1258.1307 C 861.08251,1261.0049 860.18391,1264.8455 857.70341,1270.1307 C 848.60831,1281.0399 831.55911,1286.1337 816.35961,1286.6932 C 810.74871,1286.8998 805.47171,1286.4099 800.85961,1285.4432 C 800.65491,1285.4184 800.43951,1285.3759 800.23461,1285.3494 C 787.12021,1283.6555 773.81681,1278.5876 766.14091,1269.3807 C 752.91161,1241.1930 785.04861,1254.2078 788.82841,1234.6932 C 791.58231,1220.4750 780.35001,1216.0827 774.01591,1214.7244 L 671.10961,1214.7244 L 671.10961,1316.3182 C 669.89141,1322.5194 665.62061,1334.5593 650.98461,1331.7244 C 631.47001,1327.9447 644.48491,1295.8389 616.29711,1309.0682 C 607.09021,1316.7441 602.02231,1330.0475 600.32841,1343.1619 C 600.30191,1343.3668 600.25941,1343.5823 600.23461,1343.7869 C 599.26791,1348.3990 598.77811,1353.6760 598.98461,1359.2869 C 599.54421,1374.4864 604.63791,1391.5356 615.54711,1400.6307 C 643.73481,1413.8600 630.72001,1381.7230 650.23461,1377.9432 C 669.74921,1374.1634 670.82841,1396.8494 670.82841,1396.8494 L 671.10961,1494.0369 C 671.10961,1494.0369 769.35961,1493.4119 769.35961,1493.4119 C 769.35961,1493.4119 792.04571,1492.3328 788.26591,1472.8183 C 784.48611,1453.3037 752.34911,1466.3184 765.57841,1438.1307 C 774.67351,1427.2215 791.72271,1422.1277 806.92211,1421.5682 C 812.53311,1421.3616 817.81011,1421.8515 822.42211,1422.8182 C 822.62681,1422.8430 822.84231,1422.8855 823.04711,1422.9119 C 836.16151,1424.6059 849.46491,1429.6737 857.14091,1438.8807 C 859.62141,1444.1659 860.52001,1448.0065 860.29711,1450.8807 C 859.33141,1463.3354 837.55571,1457.7125 834.48461,1473.5683 C 830.95791,1491.7760 849.82431,1493.8294 852.45341,1494.0369 L 950.85956,1494.0369 L 950.85956,1391.8807 C 952.34156,1385.4751 956.85146,1374.9165 970.70336,1377.5994 C 990.21796,1381.3792 977.20306,1413.4850 1005.3908,1400.2557 C 1014.5977,1392.5798 1019.6656,1379.2764 1021.3595,1366.1619 C 1021.3860,1365.9571 1021.4285,1365.7416 1021.4533,1365.5369 C 1022.4200,1360.9249 1022.9098,1355.6479 1022.7033,1350.0369 z "
       id="path5044"
       sodipodi:nodetypes="cccccccccccccccccccccccccccccccccccccccccccc"
       style="fill:#0000ff;fill-opacity:1.0000000;fill-rule:evenodd;stroke:#000000;stroke-width:12.500000;stroke-linejoin:round;stroke-dasharray:none" />
    <path
       d="M 1085.3125,1140.7090 C 1070.1131,1141.2685 1053.0639,1146.3623 1043.9688,1157.2715 C 1030.7395,1185.4592 1062.8765,1172.4444 1066.6562,1191.9590 C 1070.4360,1211.4736 1047.7500,1212.5527 1047.7500,1212.5527 L 1047.7500,1212.5527 L 950.00000,1212.5527 C 950.00000,1212.5527 950.12500,1309.4902 950.12500,1309.4902 C 950.12500,1309.4902 951.20417,1332.1762 970.71875,1328.3965 C 986.57435,1325.3254 980.95151,1303.5184 993.40625,1302.5527 C 996.28042,1302.3299 1000.1210,1303.2285 1005.4062,1305.7090 C 1016.3155,1314.8041 1021.4092,1331.8533 1021.9688,1347.0527 C 1022.1753,1352.6637 1021.6854,1357.9407 1020.7188,1362.5527 C 1020.6939,1362.7574 1020.6515,1362.9729 1020.6250,1363.1777 C 1018.9311,1376.2921 1013.8632,1389.5955 1004.6562,1397.2715 C 976.46851,1410.5007 989.48334,1378.3637 969.96875,1374.5840 C 955.75055,1371.8300 951.35830,1383.0623 950.00000,1389.3965 L 950.00000,1492.3027 L 1051.5938,1492.3027 C 1057.7950,1493.5210 1069.8348,1497.7918 1067.0000,1512.4277 C 1063.2202,1531.9423 1031.1145,1518.9275 1044.3438,1547.1152 C 1052.0197,1556.3222 1065.3231,1561.3901 1078.4375,1563.0840 C 1078.6423,1563.1104 1078.8578,1563.1529 1079.0625,1563.1777 C 1083.6745,1564.1444 1088.9515,1564.6343 1094.5625,1564.4277 C 1109.7619,1563.8682 1126.8111,1558.7744 1135.9062,1547.8652 C 1149.1355,1519.6775 1116.9985,1532.6923 1113.2188,1513.1777 C 1109.4389,1493.6631 1132.1250,1492.5840 1132.1250,1492.5840 L 1229.3125,1492.3027 C 1229.3125,1492.3027 1228.6875,1394.0527 1228.6875,1394.0527 C 1228.6875,1394.0527 1227.6083,1371.3667 1208.0938,1375.1465 C 1188.5792,1378.9263 1201.5940,1411.0632 1173.4062,1397.8340 C 1162.4970,1388.7388 1157.4033,1371.6897 1156.8438,1356.4902 C 1156.6372,1350.8793 1157.1270,1345.6023 1158.0938,1340.9902 C 1158.1186,1340.7855 1158.1610,1340.5700 1158.1875,1340.3652 C 1159.8814,1327.2508 1164.9493,1313.9474 1174.1562,1306.2715 C 1179.4415,1303.7910 1183.2821,1302.8924 1186.1562,1303.1152 C 1198.6110,1304.0809 1192.9881,1325.8566 1208.8438,1328.9277 C 1227.0516,1332.4544 1229.1050,1313.5880 1229.3125,1310.9590 L 1229.3125,1212.5527 L 1127.1562,1212.5527 C 1120.7507,1211.0708 1110.1920,1206.5608 1112.8750,1192.7090 C 1116.6548,1173.1944 1148.7605,1186.2092 1135.5312,1158.0215 C 1127.8553,1148.8145 1114.5519,1143.7466 1101.4375,1142.0527 C 1101.2327,1142.0262 1101.0172,1141.9838 1100.8125,1141.9590 C 1096.2005,1140.9923 1090.9235,1140.5024 1085.3125,1140.7090 z "
       id="path5046"
       sodipodi:nodetypes="cccccccccccccccccccccccccccccccccccccccccccc"
       style="fill:#fe0000;fill-opacity:1.0000000;fill-rule:evenodd;stroke:#000000;stroke-width:12.500000;stroke-linejoin:round;stroke-dasharray:none" />
    <path
       d="M 878.29671,521.97437 C 878.85621,537.17377 883.95001,554.22297 894.85921,563.31807 C 923.04691,576.54737 910.03211,544.41037 929.54671,540.63057 C 949.06131,536.85077 950.14051,559.53687 950.14051,559.53687 L 950.14051,559.53687 L 950.14051,657.28687 C 950.14051,657.28687 1047.0780,657.16187 1047.0780,657.16187 C 1047.0780,657.16187 1069.7640,656.08267 1065.9842,636.56807 C 1062.9131,620.71247 1041.1062,626.33537 1040.1405,613.88057 C 1039.9176,611.00647 1040.8162,607.16577 1043.2967,601.88057 C 1052.3918,590.97137 1069.4410,585.87767 1084.6405,585.31807 C 1090.2514,585.11157 1095.5284,585.60137 1100.1405,586.56807 C 1100.3451,586.59287 1100.5606,586.63537 1100.7655,586.66187 C 1113.8799,588.35577 1127.1833,593.42367 1134.8592,602.63057 C 1148.0885,630.81837 1115.9515,617.80347 1112.1717,637.31807 C 1109.4178,651.53627 1120.6500,655.92857 1126.9842,657.28687 L 1229.8905,657.28687 L 1229.8905,555.69307 C 1231.1087,549.49187 1235.3795,537.45197 1250.0155,540.28687 C 1269.5301,544.06667 1256.5152,576.17237 1284.7030,562.94307 C 1293.9099,555.26717 1298.9778,541.96377 1300.6717,528.84937 C 1300.6982,528.64457 1300.7406,528.42907 1300.7655,528.22437 C 1301.7322,523.61227 1302.2220,518.33527 1302.0155,512.72437 C 1301.4559,497.52487 1296.3622,480.47567 1285.4530,471.38057 C 1257.2652,458.15137 1270.2800,490.28827 1250.7655,494.06807 C 1231.2509,497.84787 1230.1717,475.16187 1230.1717,475.16187 L 1229.8905,377.97437 C 1229.8905,377.97437 1131.6404,378.59937 1131.6405,378.59937 C 1131.6405,378.59937 1108.9544,379.67847 1112.7342,399.19307 C 1116.5140,418.70767 1148.6510,405.69287 1135.4217,433.88057 C 1126.3266,444.78977 1109.2774,449.88357 1094.0780,450.44307 C 1088.4670,450.64967 1083.1900,450.15977 1078.5780,449.19307 C 1078.3733,449.16827 1078.1578,449.12577 1077.9530,449.09937 C 1064.8385,447.40547 1051.5351,442.33757 1043.8592,433.13057 C 1041.3787,427.84537 1040.4801,424.00477 1040.7030,421.13057 C 1041.6687,408.67587 1063.4444,414.29867 1066.5155,398.44307 C 1070.0422,380.23517 1051.1757,378.18177 1048.5467,377.97437 L 950.14051,377.97437 L 950.14051,480.13057 C 948.65851,486.53617 944.14861,497.09487 930.29671,494.41187 C 910.78211,490.63207 923.79691,458.52637 895.60921,471.75557 C 886.40231,479.43157 881.33441,492.73497 879.64041,505.84937 C 879.61401,506.05417 879.57151,506.26967 879.54671,506.47437 C 878.58001,511.08637 878.09011,516.36337 878.29671,521.97437 z "
       id="path5048"
       sodipodi:nodetypes="cccccccccccccccccccccccccccccccccccccccccccc"
       style="fill:#feff00;fill-opacity:1.0000000;fill-rule:evenodd;stroke:#000000;stroke-width:12.500000;stroke-linejoin:round;stroke-dasharray:none" />
    <path
       d="M 877.98447,1639.7244 C 878.54407,1654.9238 883.63787,1671.9730 894.54697,1681.0681 C 922.73477,1694.2974 909.71997,1662.1604 929.23447,1658.3806 C 948.74917,1654.6008 949.82827,1677.2869 949.82827,1677.2869 L 949.82827,1677.2869 L 949.82827,1775.0369 C 949.82827,1775.0369 1046.7658,1774.9119 1046.7658,1774.9119 C 1046.7658,1774.9119 1069.4518,1773.8327 1065.6721,1754.3181 C 1062.6010,1738.4625 1040.7940,1744.0854 1039.8283,1731.6306 C 1039.6055,1728.7565 1040.5041,1724.9158 1042.9846,1719.6306 C 1052.0797,1708.7214 1069.1289,1703.6277 1084.3283,1703.0681 C 1089.9393,1702.8616 1095.2162,1703.3514 1099.8283,1704.3181 C 1100.0330,1704.3429 1100.2485,1704.3854 1100.4533,1704.4119 C 1113.5677,1706.1058 1126.8711,1711.1737 1134.5471,1720.3806 C 1147.7763,1748.5684 1115.6393,1735.5535 1111.8596,1755.0681 C 1109.1056,1769.2863 1120.3379,1773.6786 1126.6721,1775.0369 L 1229.5783,1775.0369 L 1229.5783,1673.4431 C 1230.7966,1667.2419 1235.0674,1655.2020 1249.7033,1658.0369 C 1269.2179,1661.8167 1256.2031,1693.9224 1284.3908,1680.6931 C 1293.5978,1673.0172 1298.6656,1659.7138 1300.3596,1646.5994 C 1300.3860,1646.3946 1300.4285,1646.1791 1300.4533,1645.9744 C 1301.4200,1641.3623 1301.9099,1636.0853 1301.7033,1630.4744 C 1301.1438,1615.2749 1296.0500,1598.2257 1285.1408,1589.1306 C 1256.9531,1575.9014 1269.9679,1608.0383 1250.4533,1611.8181 C 1230.9387,1615.5979 1229.8596,1592.9119 1229.8596,1592.9119 L 1229.5783,1495.7244 C 1229.5783,1495.7244 1131.3283,1496.3494 1131.3283,1496.3494 C 1131.3283,1496.3494 1108.6423,1497.4285 1112.4221,1516.9431 C 1116.2018,1536.4577 1148.3388,1523.4429 1135.1096,1551.6306 C 1126.0144,1562.5398 1108.9652,1567.6336 1093.7658,1568.1931 C 1088.1549,1568.3997 1082.8779,1567.9098 1078.2658,1566.9431 C 1078.0611,1566.9183 1077.8456,1566.8758 1077.6408,1566.8494 C 1064.5264,1565.1555 1051.2230,1560.0876 1043.5471,1550.8806 C 1041.0666,1545.5954 1040.1680,1541.7548 1040.3908,1538.8806 C 1041.3565,1526.4259 1063.1322,1532.0487 1066.2033,1516.1931 C 1069.7300,1497.9852 1050.8636,1495.9318 1048.2346,1495.7244 L 949.82827,1495.7244 L 949.82827,1597.8806 C 948.34637,1604.2862 943.83637,1614.8449 929.98447,1612.1619 C 910.46997,1608.3821 923.48477,1576.2764 895.29697,1589.5056 C 886.09007,1597.1816 881.02217,1610.4850 879.32827,1623.5994 C 879.30177,1623.8042 879.25937,1624.0197 879.23447,1624.2244 C 878.26777,1628.8364 877.77797,1634.1134 877.98447,1639.7244 z "
       id="path5050"
       sodipodi:nodetypes="cccccccccccccccccccccccccccccccccccccccccccc"
       style="fill:#feff00;fill-opacity:1.0000000;fill-rule:evenodd;stroke:#000000;stroke-width:12.500000;stroke-linejoin:round;stroke-dasharray:none" />
    <path
       d="M 880.98458,1078.4119 C 881.54412,1093.6113 886.63789,1110.6605 897.54708,1119.7556 C 925.73481,1132.9849 912.71999,1100.8479 932.23458,1097.0681 C 951.74917,1093.2883 952.82833,1115.9744 952.82833,1115.9744 L 952.82833,1115.9744 L 952.82833,1213.7244 C 952.82833,1213.7244 1049.7659,1213.5994 1049.7658,1213.5994 C 1049.7658,1213.5994 1072.4518,1212.5202 1068.6721,1193.0056 C 1065.6010,1177.1500 1043.7941,1182.7729 1042.8283,1170.3181 C 1042.6055,1167.4439 1043.5041,1163.6033 1045.9846,1158.3181 C 1055.0797,1147.4089 1072.1289,1142.3152 1087.3283,1141.7556 C 1092.9393,1141.5491 1098.2162,1142.0389 1102.8283,1143.0056 C 1103.0330,1143.0304 1103.2485,1143.0729 1103.4533,1143.0994 C 1116.5677,1144.7933 1129.8711,1149.8612 1137.5471,1159.0681 C 1150.7763,1187.2559 1118.6393,1174.2410 1114.8596,1193.7556 C 1112.1056,1207.9738 1123.3379,1212.3661 1129.6721,1213.7244 L 1232.5783,1213.7244 L 1232.5783,1112.1306 C 1233.7966,1105.9294 1238.0674,1093.8895 1252.7033,1096.7244 C 1272.2179,1100.5042 1259.2031,1132.6099 1287.3908,1119.3806 C 1296.5978,1111.7047 1301.6656,1098.4013 1303.3596,1085.2869 C 1303.3860,1085.0820 1303.4285,1084.8666 1303.4533,1084.6619 C 1304.4200,1080.0498 1304.9099,1074.7728 1304.7033,1069.1619 C 1304.1438,1053.9624 1299.0500,1036.9132 1288.1408,1027.8181 C 1259.9531,1014.5889 1272.9679,1046.7258 1253.4533,1050.5056 C 1233.9387,1054.2854 1232.8596,1031.5994 1232.8596,1031.5994 L 1232.5783,934.41184 C 1232.5783,934.41184 1134.3283,935.03685 1134.3283,935.03684 C 1134.3283,935.03684 1111.6423,936.11601 1115.4221,955.63059 C 1119.2018,975.14518 1151.3388,962.13037 1138.1096,990.31809 C 1129.0144,1001.2273 1111.9652,1006.3211 1096.7658,1006.8806 C 1091.1549,1007.0872 1085.8779,1006.5973 1081.2658,1005.6306 C 1081.0611,1005.6058 1080.8456,1005.5633 1080.6408,1005.5369 C 1067.5264,1003.8430 1054.2230,998.77507 1046.5471,989.56809 C 1044.0666,984.28289 1043.1680,980.44226 1043.3908,977.56809 C 1044.3566,965.11335 1066.1323,970.73620 1069.2033,954.88059 C 1072.7300,936.67268 1053.8636,934.61930 1051.2346,934.41184 L 952.82833,934.41184 L 952.82833,1036.5681 C 951.34639,1042.9737 946.83645,1053.5323 932.98458,1050.8494 C 913.46999,1047.0696 926.48482,1014.9638 898.29708,1028.1931 C 889.09014,1035.8691 884.02225,1049.1725 882.32833,1062.2869 C 882.30187,1062.4917 882.25939,1062.7072 882.23458,1062.9119 C 881.26788,1067.5239 880.77802,1072.8009 880.98458,1078.4119 z "
       id="path5052"
       sodipodi:nodetypes="cccccccccccccccccccccccccccccccccccccccccccc"
       style="fill:#00ffff;fill-opacity:1.0000000;fill-rule:evenodd;stroke:#000000;stroke-width:12.500000;stroke-linejoin:round;stroke-dasharray:none" />
    <path
       d="M 1085.5625,584.72437 C 1070.3631,585.28391 1053.3139,590.37768 1044.2188,601.28687 C 1030.9895,629.47460 1063.1265,616.45978 1066.9062,635.97437 C 1070.6860,655.48896 1048.0000,656.56812 1048.0000,656.56812 L 1048.0000,656.56812 L 950.25000,656.56812 C 950.25000,656.56812 950.37500,753.50563 950.37500,753.50562 C 950.37500,753.50562 951.45420,776.19165 970.96870,772.41187 C 986.82430,769.34079 981.20150,747.53384 993.65620,746.56813 C 996.53040,746.34527 1000.3710,747.24389 1005.6562,749.72438 C 1016.5655,758.81949 1021.6592,775.86868 1022.2188,791.06812 C 1022.4253,796.67907 1021.9354,801.95606 1020.9688,806.56812 C 1020.9439,806.77281 1020.9015,806.98829 1020.8750,807.19312 C 1019.1811,820.30753 1014.1132,833.61092 1004.9062,841.28687 C 976.71850,854.51614 989.73330,822.37915 970.21870,818.59937 C 956.00050,815.84544 951.60830,827.07771 950.25000,833.41187 L 950.25000,936.31812 L 1051.8438,936.31812 C 1058.0450,937.53638 1070.0848,941.80719 1067.2500,956.44313 C 1063.4702,975.95773 1031.3645,962.94289 1044.5938,991.13060 C 1052.2697,1000.3376 1065.5731,1005.4055 1078.6875,1007.0994 C 1078.8923,1007.1259 1079.1078,1007.1683 1079.3125,1007.1931 C 1083.9245,1008.1598 1089.2015,1008.6497 1094.8125,1008.4431 C 1110.0119,1007.8836 1127.0611,1002.7898 1136.1562,991.88060 C 1149.3855,963.69291 1117.2485,976.70772 1113.4688,957.19313 C 1109.6889,937.67855 1132.3750,936.59937 1132.3750,936.59937 L 1229.5625,936.31812 C 1229.5625,936.31812 1228.9375,838.06811 1228.9375,838.06812 C 1228.9375,838.06812 1227.8583,815.38207 1208.3438,819.16187 C 1188.8292,822.94166 1201.8440,855.07862 1173.6562,841.84937 C 1162.7470,832.75425 1157.6533,815.70506 1157.0938,800.50562 C 1156.8872,794.89467 1157.3770,789.61767 1158.3438,785.00562 C 1158.3686,784.80093 1158.4110,784.58543 1158.4375,784.38062 C 1160.1314,771.26621 1165.1993,757.96280 1174.4062,750.28688 C 1179.6915,747.80639 1183.5321,746.90777 1186.4062,747.13063 C 1198.8610,748.09634 1193.2381,769.87204 1209.0938,772.94312 C 1227.3016,776.46982 1229.3550,757.60340 1229.5625,754.97437 L 1229.5625,656.56812 L 1127.4062,656.56812 C 1121.0007,655.08618 1110.4420,650.57624 1113.1250,636.72437 C 1116.9048,617.20978 1149.0105,630.22461 1135.7812,602.03687 C 1128.1053,592.82993 1114.8019,587.76204 1101.6875,586.06812 C 1101.4827,586.04166 1101.2672,585.99918 1101.0625,585.97437 C 1096.4505,585.00767 1091.1735,584.51781 1085.5625,584.72437 z "
       id="path5054"
       sodipodi:nodetypes="cccccccccccccccccccccccccccccccccccccccccccc"
       style="fill:#0000ff;fill-opacity:1.0000000;fill-rule:evenodd;stroke:#000000;stroke-width:12.500000;stroke-linejoin:round;stroke-dasharray:none" />
    <path
       d="M 1084.5625,25.021057 C 1069.3631,25.580597 1052.3139,30.674367 1043.2187,41.583557 C 1029.9895,69.771287 1062.1265,56.756467 1065.9063,76.271057 C 1069.6860,95.785647 1047.0000,96.864807 1047.0000,96.864807 L 1047.0000,96.864807 L 949.25000,96.864807 C 949.25000,96.864807 949.37500,193.80233 949.37500,193.80232 C 949.37500,193.80232 950.45417,216.48835 969.96875,212.70857 C 985.82435,209.63749 980.20151,187.83053 992.65625,186.86482 C 995.53042,186.64196 999.37105,187.54058 1004.6563,190.02107 C 1015.5655,199.11619 1020.6592,216.16538 1021.2187,231.36482 C 1021.4253,236.97577 1020.9354,242.25276 1019.9687,246.86482 C 1019.9439,247.06951 1019.9015,247.28499 1019.8750,247.48982 C 1018.1811,260.60423 1013.1132,273.90762 1003.9063,281.58357 C 975.71851,294.81284 988.73334,262.67585 969.21875,258.89607 C 955.00055,256.14214 950.60830,267.37441 949.25000,273.70857 L 949.25000,376.61482 L 1050.8437,376.61482 C 1057.0450,377.83308 1069.0848,382.10389 1066.2500,396.73982 C 1062.4702,416.25442 1030.3645,403.23958 1043.5937,431.42732 C 1051.2697,440.63428 1064.5731,445.70216 1077.6875,447.39607 C 1077.8923,447.42254 1078.1078,447.46501 1078.3125,447.48982 C 1082.9245,448.45653 1088.2015,448.94638 1093.8125,448.73982 C 1109.0119,448.18029 1126.0611,443.08652 1135.1563,432.17732 C 1148.3855,403.98960 1116.2485,417.00441 1112.4687,397.48982 C 1108.6889,377.97525 1131.3750,376.89607 1131.3750,376.89607 L 1228.5625,376.61482 C 1228.5625,376.61482 1227.9375,278.36481 1227.9375,278.36482 C 1227.9375,278.36482 1226.8583,255.67877 1207.3437,259.45857 C 1187.8292,263.23836 1200.8440,295.37532 1172.6563,282.14607 C 1161.7470,273.05095 1156.6533,256.00176 1156.0937,240.80232 C 1155.8872,235.19137 1156.3770,229.91437 1157.3437,225.30232 C 1157.3686,225.09763 1157.4110,224.88213 1157.4375,224.67732 C 1159.1314,211.56291 1164.1993,198.25950 1173.4063,190.58357 C 1178.6915,188.10308 1182.5321,187.20446 1185.4063,187.42732 C 1197.8610,188.39303 1192.2381,210.16874 1208.0937,213.23982 C 1226.3016,216.76652 1228.3550,197.90010 1228.5625,195.27107 L 1228.5625,96.864807 L 1126.4063,96.864807 C 1120.0007,95.382867 1109.4420,90.872927 1112.1250,77.021057 C 1115.9048,57.506467 1148.0105,70.521297 1134.7813,42.333557 C 1127.1053,33.126617 1113.8019,28.058727 1100.6875,26.364807 C 1100.4827,26.338347 1100.2672,26.295867 1100.0625,26.271057 C 1095.4505,25.304357 1090.1735,24.814497 1084.5625,25.021057 z "
       id="path5056"
       sodipodi:nodetypes="cccccccccccccccccccccccccccccccccccccccccccc"
       style="fill:#fe0000;fill-opacity:1.0000000;fill-rule:evenodd;stroke:#000000;stroke-width:12.500000;stroke-linejoin:round;stroke-dasharray:none" />
    <path
       d="M 807.75000,1424.7244 C 792.55060,1425.2839 775.50140,1430.3777 766.40630,1441.2869 C 753.17700,1469.4746 785.31400,1456.4598 789.09370,1475.9744 C 792.87350,1495.4890 770.18750,1496.5681 770.18750,1496.5681 L 770.18750,1496.5681 L 672.43750,1496.5681 C 672.43750,1496.5681 672.56250,1593.5056 672.56250,1593.5056 C 672.56250,1593.5056 673.64167,1616.1916 693.15625,1612.4119 C 709.01185,1609.3408 703.38901,1587.5338 715.84375,1586.5681 C 718.71792,1586.3453 722.55850,1587.2439 727.84370,1589.7244 C 738.75300,1598.8195 743.84670,1615.8687 744.40630,1631.0681 C 744.61280,1636.6791 744.12290,1641.9561 743.15630,1646.5681 C 743.13140,1646.7728 743.08900,1646.9883 743.06250,1647.1931 C 741.36860,1660.3075 736.30070,1673.6109 727.09370,1681.2869 C 698.90601,1694.5161 711.92084,1662.3791 692.40625,1658.5994 C 678.18805,1655.8454 673.79580,1667.0777 672.43750,1673.4119 L 672.43750,1776.3181 L 774.03130,1776.3181 C 780.23250,1777.5364 792.27230,1781.8072 789.43750,1796.4431 C 785.65770,1815.9577 753.55200,1802.9429 766.78130,1831.1306 C 774.45720,1840.3376 787.76060,1845.4055 800.87500,1847.0994 C 801.07980,1847.1258 801.29530,1847.1683 801.50000,1847.1931 C 806.11200,1848.1598 811.38900,1848.6497 817.00000,1848.4431 C 832.19940,1847.8836 849.24860,1842.7898 858.34370,1831.8806 C 871.57300,1803.6929 839.43600,1816.7077 835.65630,1797.1931 C 831.87640,1777.6785 854.56250,1776.5994 854.56250,1776.5994 L 951.75000,1776.3181 C 951.75000,1776.3181 951.12500,1678.0681 951.12500,1678.0681 C 951.12500,1678.0681 950.04580,1655.3821 930.53130,1659.1619 C 911.01670,1662.9417 924.03150,1695.0786 895.84370,1681.8494 C 884.93450,1672.7542 879.84080,1655.7051 879.28130,1640.5056 C 879.07470,1634.8947 879.56450,1629.6177 880.53130,1625.0056 C 880.55610,1624.8009 880.59850,1624.5854 880.62500,1624.3806 C 882.31890,1611.2662 887.38680,1597.9628 896.59370,1590.2869 C 901.87900,1587.8064 905.71960,1586.9078 908.59370,1587.1306 C 921.04850,1588.0963 915.42560,1609.8720 931.28130,1612.9431 C 949.48910,1616.4698 951.54250,1597.6034 951.75000,1594.9744 L 951.75000,1496.5681 L 849.59370,1496.5681 C 843.18820,1495.0862 832.62950,1490.5762 835.31250,1476.7244 C 839.09230,1457.2098 871.19800,1470.2246 857.96870,1442.0369 C 850.29280,1432.8299 836.98940,1427.7620 823.87500,1426.0681 C 823.67020,1426.0416 823.45470,1425.9992 823.25000,1425.9744 C 818.63800,1425.0077 813.36100,1424.5178 807.75000,1424.7244 z "
       id="path5058"
       sodipodi:nodetypes="cccccccccccccccccccccccccccccccccccccccccccc"
       style="fill:#fe0000;fill-opacity:1.0000000;fill-rule:evenodd;stroke:#000000;stroke-width:12.500000;stroke-linejoin:round;stroke-dasharray:none" />
    <path
       d="M 321.98457,1641.9745 C 322.54411,1657.1739 327.63788,1674.2231 338.54707,1683.3182 C 366.73480,1696.5475 353.71998,1664.4105 373.23457,1660.6307 C 392.74916,1656.8509 393.82832,1679.5370 393.82832,1679.5370 L 393.82832,1679.5370 L 393.82832,1777.2870 C 393.82832,1777.2870 490.76589,1777.1620 490.76579,1777.1620 C 490.76579,1777.1620 513.45179,1776.0828 509.67209,1756.5682 C 506.60099,1740.7126 484.79409,1746.3355 483.82829,1733.8807 C 483.60549,1731.0065 484.50409,1727.1659 486.98459,1721.8807 C 496.07969,1710.9715 513.12889,1705.8778 528.32829,1705.3182 C 533.93929,1705.1117 539.21619,1705.6015 543.82829,1706.5682 C 544.03299,1706.5930 544.24849,1706.6355 544.45329,1706.6620 C 557.56769,1708.3559 570.87109,1713.4238 578.54709,1722.6307 C 591.77629,1750.8185 559.63929,1737.8036 555.85959,1757.3182 C 553.10559,1771.5364 564.33789,1775.9287 570.67209,1777.2870 L 673.57829,1777.2870 L 673.57829,1675.6932 C 674.79659,1669.4920 679.06739,1657.4521 693.70329,1660.2870 C 713.21789,1664.0668 700.20309,1696.1725 728.39079,1682.9432 C 737.59779,1675.2673 742.66559,1661.9639 744.35959,1648.8495 C 744.38599,1648.6446 744.42849,1648.4292 744.45329,1648.2245 C 745.41999,1643.6124 745.90989,1638.3354 745.70329,1632.7245 C 745.14379,1617.5250 740.04999,1600.4758 729.14079,1591.3807 C 700.95309,1578.1515 713.96789,1610.2884 694.45329,1614.0682 C 674.93869,1617.8480 673.85959,1595.1620 673.85959,1595.1620 L 673.57829,1497.9744 C 673.57829,1497.9744 575.32829,1498.5994 575.32829,1498.5994 C 575.32829,1498.5994 552.64229,1499.6786 556.42209,1519.1932 C 560.20179,1538.7078 592.33879,1525.6930 579.10959,1553.8807 C 570.01439,1564.7899 552.96519,1569.8837 537.76579,1570.4432 C 532.15489,1570.6498 526.87789,1570.1599 522.26579,1569.1932 C 522.06109,1569.1684 521.84559,1569.1259 521.64079,1569.0995 C 508.52639,1567.4056 495.22299,1562.3377 487.54709,1553.1307 C 485.06659,1547.8455 484.16799,1544.0049 484.39079,1541.1307 C 485.35659,1528.6760 507.13229,1534.2988 510.20329,1518.4432 C 513.72999,1500.2353 494.86359,1498.1819 492.23459,1497.9744 L 393.82832,1497.9744 L 393.82832,1600.1307 C 392.34638,1606.5363 387.83644,1617.0949 373.98457,1614.4120 C 354.46998,1610.6322 367.48481,1578.5264 339.29707,1591.7557 C 330.09013,1599.4317 325.02224,1612.7351 323.32832,1625.8495 C 323.30186,1626.0543 323.25938,1626.2698 323.23457,1626.4745 C 322.26787,1631.0865 321.77801,1636.3635 321.98457,1641.9745 z "
       id="path5060"
       sodipodi:nodetypes="cccccccccccccccccccccccccccccccccccccccccccc"
       style="fill:#00ffff;fill-opacity:1.0000000;fill-rule:evenodd;stroke:#000000;stroke-width:12.500000;stroke-linejoin:round;stroke-dasharray:none" />
    <path
       d="M 248.31250,1425.7089 C 233.11306,1426.2685 216.06387,1431.3622 206.96875,1442.2714 C 193.73949,1470.4591 225.87646,1457.4443 229.65625,1476.9589 C 233.43604,1496.4735 210.75000,1497.5527 210.75000,1497.5527 L 210.75000,1497.5527 L 113.00000,1497.5527 C 113.00000,1497.5527 113.12500,1594.4902 113.12500,1594.4902 C 113.12500,1594.4902 114.20417,1617.1762 133.71875,1613.3964 C 149.57435,1610.3253 143.95151,1588.5184 156.40625,1587.5527 C 159.28042,1587.3298 163.12105,1588.2284 168.40625,1590.7089 C 179.31545,1599.8040 184.40921,1616.8532 184.96875,1632.0527 C 185.17531,1637.6636 184.68545,1642.9406 183.71875,1647.5527 C 183.69394,1647.7574 183.65146,1647.9728 183.62500,1648.1777 C 181.93109,1661.2921 176.86320,1674.5955 167.65625,1682.2714 C 139.46851,1695.5007 152.48334,1663.3637 132.96875,1659.5839 C 118.75055,1656.8300 114.35830,1668.0623 113.00000,1674.3964 L 113.00000,1777.3027 L 214.59375,1777.3027 C 220.79497,1778.5209 232.83484,1782.7917 230.00000,1797.4277 C 226.22021,1816.9423 194.11448,1803.9274 207.34375,1832.1152 C 215.01969,1841.3221 228.32309,1846.3900 241.43750,1848.0839 C 241.64232,1848.1104 241.85781,1848.1529 242.06250,1848.1777 C 246.67454,1849.1444 251.95155,1849.6342 257.56250,1849.4277 C 272.76194,1848.8681 289.81113,1843.7744 298.90625,1832.8652 C 312.13551,1804.6775 279.99854,1817.6923 276.21875,1798.1777 C 272.43895,1778.6631 295.12500,1777.5839 295.12500,1777.5839 L 392.31250,1777.3027 C 392.31250,1777.3027 391.68749,1679.0527 391.68750,1679.0527 C 391.68750,1679.0527 390.60832,1656.3666 371.09375,1660.1464 C 351.57916,1663.9262 364.59397,1696.0632 336.40625,1682.8339 C 325.49705,1673.7388 320.40328,1656.6896 319.84375,1641.4902 C 319.63719,1635.8792 320.12704,1630.6022 321.09375,1625.9902 C 321.11856,1625.7855 321.16103,1625.5700 321.18750,1625.3652 C 322.88141,1612.2508 327.94929,1598.9474 337.15625,1591.2714 C 342.44145,1588.7909 346.28208,1587.8923 349.15625,1588.1152 C 361.61099,1589.0809 355.98814,1610.8566 371.84375,1613.9277 C 390.05165,1617.4544 392.10504,1598.5880 392.31250,1595.9589 L 392.31250,1497.5527 L 290.15625,1497.5527 C 283.75066,1496.0707 273.19202,1491.5608 275.87500,1477.7089 C 279.65478,1458.1943 311.76052,1471.2092 298.53125,1443.0214 C 290.85530,1433.8145 277.55191,1428.7466 264.43750,1427.0527 C 264.23267,1427.0262 264.01719,1426.9837 263.81250,1426.9589 C 259.20045,1425.9922 253.92345,1425.5024 248.31250,1425.7089 z "
       id="path5062"
       sodipodi:nodetypes="cccccccccccccccccccccccccccccccccccccccccccc"
       style="fill:#0000ff;fill-opacity:1.0000000;fill-rule:evenodd;stroke:#000000;stroke-width:12.500000;stroke-linejoin:round;stroke-dasharray:none" />
    <path
       d="M 528.75000,1706.0211 C 513.55060,1706.5806 496.50140,1711.6744 487.40630,1722.5836 C 474.17700,1750.7713 506.31400,1737.7565 510.09370,1757.2711 C 513.87350,1776.7857 491.18750,1777.8648 491.18750,1777.8648 L 491.18750,1777.8648 L 393.43750,1777.8648 C 393.43750,1777.8648 393.56250,1874.8023 393.56250,1874.8023 C 393.56250,1874.8023 394.64167,1897.4883 414.15625,1893.7086 C 430.01185,1890.6375 424.38901,1868.8305 436.84375,1867.8648 C 439.71792,1867.6420 443.55850,1868.5406 448.84370,1871.0211 C 459.75300,1880.1162 464.84670,1897.1654 465.40630,1912.3648 C 465.61280,1917.9758 465.12290,1923.2528 464.15630,1927.8648 C 464.13140,1928.0695 464.08900,1928.2850 464.06250,1928.4898 C 462.36860,1941.6042 457.30070,1954.9076 448.09370,1962.5836 C 419.90601,1975.8128 432.92084,1943.6758 413.40625,1939.8961 C 399.18805,1937.1421 394.79580,1948.3744 393.43750,1954.7086 L 393.43750,2057.6148 L 495.03130,2057.6148 C 501.23250,2058.8331 513.27230,2063.1039 510.43750,2077.7398 C 506.65770,2097.2544 474.55200,2084.2396 487.78130,2112.4273 C 495.45720,2121.6343 508.76060,2126.7022 521.87500,2128.3961 C 522.07980,2128.4225 522.29530,2128.4650 522.50000,2128.4898 C 527.11200,2129.4565 532.38900,2129.9464 538.00000,2129.7398 C 553.19940,2129.1803 570.24860,2124.0865 579.34370,2113.1773 C 592.57300,2084.9896 560.43600,2098.0044 556.65630,2078.4898 C 552.87640,2058.9752 575.56250,2057.8961 575.56250,2057.8961 L 672.75000,2057.6148 C 672.75000,2057.6148 672.12500,1959.3648 672.12500,1959.3648 C 672.12500,1959.3648 671.04580,1936.6788 651.53130,1940.4586 C 632.01670,1944.2384 645.03150,1976.3753 616.84370,1963.1461 C 605.93450,1954.0509 600.84080,1937.0018 600.28130,1921.8023 C 600.07470,1916.1914 600.56450,1910.9144 601.53130,1906.3023 C 601.55610,1906.0976 601.59850,1905.8821 601.62500,1905.6773 C 603.31890,1892.5629 608.38680,1879.2595 617.59370,1871.5836 C 622.87900,1869.1031 626.71960,1868.2045 629.59370,1868.4273 C 642.04850,1869.3930 636.42560,1891.1687 652.28130,1894.2398 C 670.48910,1897.7665 672.54250,1878.9001 672.75000,1876.2711 L 672.75000,1777.8648 L 570.59370,1777.8648 C 564.18820,1776.3829 553.62950,1771.8729 556.31250,1758.0211 C 560.09230,1738.5065 592.19800,1751.5213 578.96870,1723.3336 C 571.29280,1714.1266 557.98940,1709.0587 544.87500,1707.3648 C 544.67020,1707.3383 544.45470,1707.2959 544.25000,1707.2711 C 539.63800,1706.3044 534.36100,1705.8145 528.75000,1706.0211 z "
       id="path5064"
       sodipodi:nodetypes="cccccccccccccccccccccccccccccccccccccccccccc"
       style="fill:#fe0000;fill-opacity:1.0000000;fill-rule:evenodd;stroke:#000000;stroke-width:12.500000;stroke-linejoin:round;stroke-dasharray:none" />
    <path
       d="M 603.00000,1922.4119 C 603.55960,1937.6113 608.65340,1954.6605 619.56250,1963.7556 C 647.75030,1976.9849 634.73550,1944.8479 654.25000,1941.0681 C 673.76470,1937.2883 674.84380,1959.9744 674.84380,1959.9744 L 674.84380,1959.9744 L 674.84380,2057.7244 C 674.84380,2057.7244 771.78132,2057.5994 771.78132,2057.5994 C 771.78132,2057.5994 794.46732,2056.5202 790.68762,2037.0056 C 787.61652,2021.1500 765.80952,2026.7729 764.84382,2014.3181 C 764.62102,2011.4440 765.51962,2007.6033 768.00012,2002.3181 C 777.09522,1991.4089 794.14442,1986.3152 809.34382,1985.7556 C 814.95482,1985.5491 820.23172,1986.0389 824.84382,1987.0056 C 825.04852,1987.0304 825.26402,1987.0729 825.46882,1987.0994 C 838.58322,1988.7933 851.88662,1993.8612 859.56262,2003.0681 C 872.79182,2031.2559 840.65482,2018.2410 836.87512,2037.7556 C 834.12112,2051.9738 845.35342,2056.3661 851.68762,2057.7244 L 954.59382,2057.7244 L 954.59382,1956.1306 C 955.81212,1949.9294 960.08292,1937.8895 974.71882,1940.7244 C 994.23342,1944.5042 981.21862,1976.6099 1009.4063,1963.3806 C 1018.6133,1955.7047 1023.6811,1942.4013 1025.3751,1929.2869 C 1025.4015,1929.0821 1025.4440,1928.8666 1025.4688,1928.6619 C 1026.4355,1924.0498 1026.9254,1918.7728 1026.7188,1913.1619 C 1026.1593,1897.9624 1021.0655,1880.9132 1010.1563,1871.8181 C 981.96862,1858.5889 994.98342,1890.7258 975.46882,1894.5056 C 955.95422,1898.2854 954.87512,1875.5994 954.87512,1875.5994 L 954.59382,1778.4119 C 954.59382,1778.4119 856.34382,1779.0369 856.34382,1779.0369 C 856.34382,1779.0369 833.65782,1780.1160 837.43762,1799.6306 C 841.21732,1819.1452 873.35432,1806.1304 860.12512,1834.3181 C 851.02992,1845.2273 833.98072,1850.3211 818.78132,1850.8806 C 813.17042,1851.0872 807.89342,1850.5973 803.28132,1849.6306 C 803.07662,1849.6058 802.86112,1849.5633 802.65632,1849.5369 C 789.54192,1847.8430 776.23852,1842.7751 768.56262,1833.5681 C 766.08212,1828.2829 765.18352,1824.4423 765.40632,1821.5681 C 766.37202,1809.1134 788.14772,1814.7362 791.21882,1798.8806 C 794.74552,1780.6727 775.87912,1778.6193 773.25012,1778.4119 L 674.84380,1778.4119 L 674.84380,1880.5681 C 673.36190,1886.9737 668.85190,1897.5324 655.00000,1894.8494 C 635.48550,1891.0696 648.50030,1858.9639 620.31250,1872.1931 C 611.10560,1879.8691 606.03770,1893.1725 604.34380,1906.2869 C 604.31730,1906.4917 604.27490,1906.7072 604.25000,1906.9119 C 603.28330,1911.5239 602.79350,1916.8009 603.00000,1922.4119 z "
       id="path5066"
       sodipodi:nodetypes="cccccccccccccccccccccccccccccccccccccccccccc"
       style="fill:#feff00;fill-opacity:1.0000000;fill-rule:evenodd;stroke:#000000;stroke-width:12.500000;stroke-linejoin:round;stroke-dasharray:none" />
    <path
       d="M 1085.3125,1706.0211 C 1070.1131,1706.5806 1053.0639,1711.6744 1043.9688,1722.5836 C 1030.7395,1750.7713 1062.8765,1737.7565 1066.6562,1757.2711 C 1070.4360,1776.7857 1047.7500,1777.8648 1047.7500,1777.8648 L 1047.7500,1777.8648 L 950.00000,1777.8648 C 950.00000,1777.8648 950.12500,1874.8023 950.12500,1874.8023 C 950.12500,1874.8023 951.20417,1897.4883 970.71875,1893.7086 C 986.57435,1890.6375 980.95151,1868.8305 993.40625,1867.8648 C 996.28042,1867.6420 1000.1210,1868.5406 1005.4062,1871.0211 C 1016.3155,1880.1162 1021.4092,1897.1654 1021.9688,1912.3648 C 1022.1753,1917.9758 1021.6854,1923.2528 1020.7188,1927.8648 C 1020.6939,1928.0695 1020.6515,1928.2850 1020.6250,1928.4898 C 1018.9311,1941.6042 1013.8632,1954.9076 1004.6562,1962.5836 C 976.46851,1975.8128 989.48334,1943.6758 969.96875,1939.8961 C 955.75055,1937.1421 951.35830,1948.3744 950.00000,1954.7086 L 950.00000,2057.6148 L 1051.5938,2057.6148 C 1057.7950,2058.8331 1069.8348,2063.1039 1067.0000,2077.7398 C 1063.2202,2097.2544 1031.1145,2084.2396 1044.3438,2112.4273 C 1052.0197,2121.6343 1065.3231,2126.7022 1078.4375,2128.3961 C 1078.6423,2128.4225 1078.8578,2128.4650 1079.0625,2128.4898 C 1083.6745,2129.4565 1088.9515,2129.9464 1094.5625,2129.7398 C 1109.7619,2129.1803 1126.8111,2124.0865 1135.9062,2113.1773 C 1149.1355,2084.9896 1116.9985,2098.0044 1113.2188,2078.4898 C 1109.4389,2058.9752 1132.1250,2057.8961 1132.1250,2057.8961 L 1229.3125,2057.6148 C 1229.3125,2057.6148 1228.6875,1959.3648 1228.6875,1959.3648 C 1228.6875,1959.3648 1227.6083,1936.6788 1208.0938,1940.4586 C 1188.5792,1944.2384 1201.5940,1976.3753 1173.4062,1963.1461 C 1162.4970,1954.0509 1157.4033,1937.0018 1156.8438,1921.8023 C 1156.6372,1916.1914 1157.1270,1910.9144 1158.0938,1906.3023 C 1158.1186,1906.0976 1158.1610,1905.8821 1158.1875,1905.6773 C 1159.8814,1892.5629 1164.9493,1879.2595 1174.1562,1871.5836 C 1179.4415,1869.1031 1183.2821,1868.2045 1186.1562,1868.4273 C 1198.6110,1869.3930 1192.9881,1891.1687 1208.8438,1894.2398 C 1227.0516,1897.7665 1229.1050,1878.9001 1229.3125,1876.2711 L 1229.3125,1777.8648 L 1127.1562,1777.8648 C 1120.7507,1776.3829 1110.1920,1771.8729 1112.8750,1758.0211 C 1116.6548,1738.5065 1148.7605,1751.5213 1135.5312,1723.3336 C 1127.8553,1714.1266 1114.5519,1709.0587 1101.4375,1707.3648 C 1101.2327,1707.3383 1101.0172,1707.2959 1100.8125,1707.2711 C 1096.2005,1706.3044 1090.9235,1705.8145 1085.3125,1706.0211 z "
       id="path5068"
       sodipodi:nodetypes="cccccccccccccccccccccccccccccccccccccccccccc"
       style="fill:#fe0000;fill-opacity:1.0000000;fill-rule:evenodd;stroke:#000000;stroke-width:12.500000;stroke-linejoin:round;stroke-dasharray:none" />
    <path
       d="M 41.296692,1922.7245 C 41.856232,1937.9239 46.950002,1954.9731 57.859192,1964.0682 C 86.046922,1977.2975 73.032102,1945.1605 92.546692,1941.3807 C 112.06128,1937.6009 113.14044,1960.2870 113.14044,1960.2870 L 113.14044,1960.2870 L 113.14044,2058.0370 C 113.14044,2058.0370 210.07801,2057.9120 210.07791,2057.9120 C 210.07791,2057.9120 232.76391,2056.8328 228.98421,2037.3182 C 225.91311,2021.4626 204.10621,2027.0855 203.14041,2014.6307 C 202.91761,2011.7565 203.81621,2007.9159 206.29671,2002.6307 C 215.39181,1991.7215 232.44101,1986.6278 247.64041,1986.0682 C 253.25141,1985.8617 258.52831,1986.3515 263.14041,1987.3182 C 263.34511,1987.3430 263.56061,1987.3855 263.76541,1987.4120 C 276.87981,1989.1059 290.18321,1994.1738 297.85921,2003.3807 C 311.08841,2031.5685 278.95141,2018.5536 275.17171,2038.0682 C 272.41771,2052.2864 283.65001,2056.6787 289.98421,2058.0370 L 392.89041,2058.0370 L 392.89041,1956.4432 C 394.10871,1950.2420 398.37951,1938.2021 413.01541,1941.0370 C 432.53001,1944.8168 419.51521,1976.9225 447.70291,1963.6932 C 456.90991,1956.0173 461.97771,1942.7139 463.67171,1929.5995 C 463.69811,1929.3946 463.74061,1929.1792 463.76541,1928.9745 C 464.73211,1924.3624 465.22201,1919.0854 465.01541,1913.4745 C 464.45591,1898.2750 459.36211,1881.2258 448.45291,1872.1307 C 420.26521,1858.9015 433.28001,1891.0384 413.76541,1894.8182 C 394.25081,1898.5980 393.17171,1875.9120 393.17171,1875.9120 L 392.89041,1778.7244 C 392.89041,1778.7244 294.64041,1779.3494 294.64041,1779.3494 C 294.64041,1779.3494 271.95441,1780.4286 275.73421,1799.9432 C 279.51391,1819.4578 311.65091,1806.4430 298.42171,1834.6307 C 289.32651,1845.5399 272.27731,1850.6337 257.07791,1851.1932 C 251.46701,1851.3998 246.19001,1850.9099 241.57791,1849.9432 C 241.37321,1849.9184 241.15771,1849.8759 240.95291,1849.8495 C 227.83851,1848.1556 214.53511,1843.0877 206.85921,1833.8807 C 204.37871,1828.5955 203.48011,1824.7549 203.70291,1821.8807 C 204.66871,1809.4260 226.44441,1815.0488 229.51541,1799.1932 C 233.04211,1780.9853 214.17571,1778.9319 211.54671,1778.7244 L 113.14044,1778.7244 L 113.14044,1880.8807 C 111.65850,1887.2863 107.14856,1897.8449 93.296692,1895.1620 C 73.782102,1891.3822 86.796932,1859.2764 58.609192,1872.5057 C 49.402252,1880.1817 44.334362,1893.4851 42.640442,1906.5995 C 42.613982,1906.8043 42.571502,1907.0198 42.546692,1907.2245 C 41.579992,1911.8365 41.090132,1917.1135 41.296692,1922.7245 z "
       id="path5070"
       sodipodi:nodetypes="cccccccccccccccccccccccccccccccccccccccccccc"
       style="fill:#00ffff;fill-opacity:1.0000000;fill-rule:evenodd;stroke:#000000;stroke-width:12.500000;stroke-linejoin:round;stroke-dasharray:none" />
  </g>
</svg>
