<?xml version="1.0" encoding="UTF-8" standalone="no"?>
<!-- Created with Inkscape (http://www.inkscape.org/) -->
<svg
   xmlns:dc="http://purl.org/dc/elements/1.1/"
   xmlns:cc="http://web.resource.org/cc/"
   xmlns:rdf="http://www.w3.org/1999/02/22-rdf-syntax-ns#"
   xmlns:svg="http://www.w3.org/2000/svg"
   xmlns="http://www.w3.org/2000/svg"
   xmlns:sodipodi="http://inkscape.sourceforge.net/DTD/sodipodi-0.dtd"
   xmlns:inkscape="http://www.inkscape.org/namespaces/inkscape"
   width="595.27559pt"
   height="841.88976pt"
   id="svg1371"
   sodipodi:version="0.32"
   inkscape:version="0.42"
   sodipodi:docbase="/media/data/clipart"
   sodipodi:docname="jigsaw_puzzle_four_piece.svg">
  <defs
     id="defs1373" />
  <sodipodi:namedview
     id="base"
     pagecolor="#ffffff"
     bordercolor="#666666"
     borderopacity="1.0"
     inkscape:pageopacity="0.0"
     inkscape:pageshadow="2"
     inkscape:zoom="0.35000000"
     inkscape:cx="375.00000"
     inkscape:cy="634.28571"
     inkscape:document-units="mm"
     inkscape:current-layer="layer1"
     gridspacingy="1.0000000mm"
     gridspacingx="1.0000000mm"
     gridoriginy="0.0000000mm"
     gridoriginx="0.0000000mm"
     gridtolerance="1.0000000px"
     gridempspacing="1"
     showgrid="true"
     inkscape:grid-bbox="true"
     inkscape:grid-points="true"
     inkscape:guide-points="true"
     guidetolerance="1.0000000mm"
     inkscape:window-width="712"
     inkscape:window-height="510"
     inkscape:window-x="200"
     inkscape:window-y="0" />
  <metadata
     id="metadata1376">
    <rdf:RDF>
      <cc:Work
         rdf:about="">
        <dc:format>image/svg+xml</dc:format>
        <dc:type
           rdf:resource="http://purl.org/dc/dcmitype/StillImage" />
        <dc:title>Puzzle Pieces</dc:title>
        <dc:creator>
          <cc:Agent>
            <dc:title>Steve Karg</dc:title>
          </cc:Agent>
        </dc:creator>
        <cc:license
           rdf:resource="http://web.resource.org/cc/PublicDomain" />
      </cc:Work>
      <cc:License
         rdf:about="http://web.resource.org/cc/PublicDomain">
        <cc:permits
           rdf:resource="http://web.resource.org/cc/Reproduction" />
        <cc:permits
           rdf:resource="http://web.resource.org/cc/Distribution" />
        <cc:permits
           rdf:resource="http://web.resource.org/cc/DerivativeWorks" />
      </cc:License>
    </rdf:RDF>
  </metadata>
  <g
     inkscape:label="Layer 1"
     inkscape:groupmode="layer"
     id="layer1">
    <path
       style="fill:#fe0000;fill-opacity:1.0000000;fill-rule:evenodd;stroke:#000000;stroke-width:12.402227;stroke-linejoin:round;stroke-dasharray:none"
       sodipodi:nodetypes="cccccccccccccccccccccccccccccccccccccccccccc"
       id="path5040"
       d="M 510.55761,143.71362 C 495.42100,144.26662 478.44230,149.30192 469.38478,160.08572 C 456.21020,187.94932 488.21432,175.08412 491.97849,194.37442 C 495.74265,213.66462 473.15039,214.73132 473.15039,214.73132 L 473.15039,214.73132 L 375.80449,214.73132 C 375.80449,214.73132 375.92898,310.55442 375.92898,310.55442 C 375.92898,310.55442 377.00368,332.97961 396.43759,329.24342 C 412.22764,326.20762 406.62805,304.65132 419.03130,303.69671 C 421.89359,303.47652 425.71834,304.36471 430.98169,306.81671 C 441.84579,315.80732 446.91850,332.66052 447.47572,347.68511 C 447.68143,353.23161 447.19359,358.44801 446.23089,363.00691 C 446.20618,363.20932 446.16388,363.42232 446.13753,363.62482 C 444.45062,376.58841 439.40368,389.73892 430.23479,397.32662 C 402.16358,410.40371 415.12461,378.63621 395.69069,374.89992 C 381.53127,372.17762 377.15718,383.28082 375.80449,389.54212 L 375.80449,491.26531 L 476.97825,491.26531 C 483.15384,492.46961 495.14393,496.69132 492.32081,511.15902 C 488.55665,530.44922 456.58364,517.58412 469.75822,545.44772 C 477.40243,554.54892 490.65084,559.55852 503.71103,561.23292 C 503.91500,561.25902 504.12960,561.30102 504.33345,561.32562 C 508.92642,562.28112 514.18162,562.76542 519.76937,562.56122 C 534.90598,562.00812 551.88468,556.97292 560.94221,546.18912 C 574.11678,518.32542 542.11266,531.19062 538.34850,511.90042 C 534.58432,492.61012 557.17659,491.54341 557.17659,491.54341 L 653.96231,491.26531 C 653.96231,491.26531 653.33989,394.14482 653.33990,394.14482 C 653.33990,394.14482 652.26518,371.71961 632.83128,375.45601 C 613.39737,379.19232 626.35837,410.95981 598.28718,397.88262 C 587.42308,388.89202 582.35037,372.03891 581.79315,357.01412 C 581.58744,351.46771 582.07527,346.25142 583.03798,341.69232 C 583.06269,341.49001 583.10498,341.27702 583.13134,341.07452 C 584.81825,328.11091 589.86518,314.96042 599.03408,307.37271 C 604.29743,304.92082 608.12218,304.03251 610.98447,304.25271 C 623.38772,305.20731 617.78812,326.73271 633.57818,329.76851 C 651.71081,333.25462 653.75571,314.60512 653.96231,312.00642 L 653.96231,214.73132 L 552.22838,214.73132 C 545.84927,213.26652 535.33428,208.80832 538.00617,195.11582 C 541.77032,175.82552 573.74334,188.69072 560.56876,160.82702 C 552.92454,151.72592 539.67614,146.71622 526.61595,145.04182 C 526.41197,145.01572 526.19738,144.97372 525.99353,144.94922 C 521.40055,143.99362 516.14536,143.50932 510.55761,143.71362 z " />
    <path
       style="fill:#feff00;fill-opacity:1.0000000;fill-rule:evenodd;stroke:#000000;stroke-width:12.402227;stroke-linejoin:round;stroke-dasharray:none"
       sodipodi:nodetypes="cccccccccccccccccccccccccccccccccccccccccccc"
       id="path5042"
       d="M 26.240140,356.38112 C 26.797370,371.40582 31.870080,388.25901 42.734170,397.24952 C 70.805370,410.32671 57.844360,378.55921 77.278270,374.82281 C 96.712200,371.08652 97.786900,393.51182 97.786900,393.51182 L 97.786900,393.51182 L 97.786900,490.13801 C 97.786900,490.13801 194.32367,490.01452 194.32366,490.01452 C 194.32366,490.01452 216.91590,488.94772 213.15175,469.65742 C 210.09337,453.98411 188.37656,459.54242 187.41484,447.23072 C 187.19290,444.38972 188.08780,440.59312 190.55804,435.36872 C 199.61556,424.58492 216.59427,419.54982 231.73087,418.99662 C 237.31863,418.79251 242.57380,419.27661 247.16680,420.23221 C 247.37064,420.25671 247.58523,420.29881 247.78921,420.32491 C 260.84941,421.99941 274.09780,427.00901 281.74202,436.11012 C 294.91660,463.97382 262.91246,451.10852 259.14831,470.39882 C 256.40577,484.45362 267.59160,488.79541 273.89958,490.13801 L 376.38041,490.13801 L 376.38041,389.71222 C 377.59363,383.58231 381.84679,371.68081 396.42221,374.48311 C 415.85614,378.21942 402.89510,409.95602 430.96632,396.87882 C 440.13521,389.29122 445.18214,376.14072 446.86905,363.17712 C 446.89541,362.97461 446.93771,362.76162 446.96241,362.55921 C 447.92513,358.00022 448.41295,352.78382 448.20725,347.23741 C 447.65003,332.21272 442.57732,315.35951 431.71322,306.36892 C 403.64202,293.29182 416.60303,325.05931 397.16911,328.79561 C 377.73522,332.53202 376.66050,310.10681 376.66050,310.10681 L 376.38041,214.03652 C 376.38041,214.03652 278.53657,214.65432 278.53658,214.65432 C 278.53658,214.65432 255.94431,215.72102 259.70849,235.01132 C 263.47265,254.30152 295.47676,241.43642 282.30220,269.30002 C 273.24467,280.08382 256.26597,285.11912 241.12936,285.67212 C 235.54161,285.87632 230.28642,285.39212 225.69344,284.43652 C 225.48959,284.41202 225.27498,284.37002 225.07102,284.34392 C 212.01083,282.66942 198.76241,277.65982 191.11821,268.55862 C 188.64798,263.33422 187.75307,259.53782 187.97501,256.69662 C 188.93673,244.38512 210.62242,249.94322 213.68080,234.26992 C 217.19292,216.27132 198.40450,214.24152 195.78634,214.03652 L 97.786900,214.03652 L 97.786900,315.01832 C 96.311080,321.35032 91.819790,331.78762 78.025170,329.13551 C 58.591260,325.39911 71.552280,293.66252 43.481070,306.73962 C 34.312190,314.32741 29.265250,327.47782 27.578330,340.44151 C 27.551980,340.64391 27.509680,340.85692 27.484970,341.05931 C 26.522270,345.61831 26.034430,350.83461 26.240140,356.38112 z " />
    <path
       style="fill:#00ffff;fill-opacity:1.0000000;fill-rule:evenodd;stroke:#000000;stroke-width:12.402227;stroke-linejoin:round;stroke-dasharray:none"
       sodipodi:nodetypes="cccccccccccccccccccccccccccccccccccccccccccc"
       id="path5060"
       d="M 306.07851,635.94252 C 306.63573,650.96712 311.70845,667.82042 322.57254,676.81092 C 350.64374,689.88812 337.68272,658.12062 357.11664,654.38422 C 376.55055,650.64792 377.62525,673.07322 377.62525,673.07322 L 377.62525,673.07322 L 377.62525,769.69942 C 377.62525,769.69942 474.16208,769.57592 474.16198,769.57592 C 474.16198,769.57592 496.75420,768.50912 492.99013,749.21882 C 489.93172,733.54552 468.21497,739.10372 467.25316,726.79212 C 467.03128,723.95102 467.92617,720.15452 470.39642,714.93012 C 479.45392,704.14632 496.43264,699.11112 511.56920,698.55802 C 517.15700,698.35392 522.41209,698.83802 527.00512,699.79362 C 527.20898,699.81812 527.42359,699.86012 527.62754,699.88632 C 540.68773,701.56082 553.93613,706.57042 561.58040,715.67152 C 574.75491,743.53522 542.75076,730.66992 538.98669,749.96022 C 536.24407,764.01492 547.42994,768.35672 553.73795,769.69942 L 656.21874,769.69942 L 656.21874,669.27362 C 657.43200,663.14362 661.68515,651.24222 676.26054,654.04452 C 695.69447,657.78082 682.73347,689.51742 710.80464,676.44022 C 719.97358,668.85252 725.02043,655.70212 726.70743,642.73842 C 726.73372,642.53592 726.77604,642.32302 726.80074,642.12062 C 727.76344,637.56162 728.25132,632.34522 728.04557,626.79882 C 727.48839,611.77412 722.41564,594.92092 711.55154,585.93032 C 683.48037,572.85322 696.44137,604.62062 677.00744,608.35702 C 657.57351,612.09332 656.49887,589.66812 656.49887,589.66812 L 656.21874,493.59781 C 656.21874,493.59781 558.37490,494.21562 558.37490,494.21562 C 558.37490,494.21562 535.78269,495.28242 539.54686,514.57272 C 543.31094,533.86292 575.31508,520.99782 562.14057,548.86142 C 553.08297,559.64522 536.10425,564.68042 520.96769,565.23352 C 515.37998,565.43772 510.12480,564.95352 505.53176,563.99792 C 505.32791,563.97342 505.11330,563.93132 504.90935,563.90532 C 491.84916,562.23082 478.60076,557.22122 470.95659,548.12002 C 468.48634,542.89562 467.59146,539.09912 467.81334,536.25802 C 468.77515,523.94652 490.46083,529.50462 493.51913,513.83132 C 497.03125,495.83272 478.24284,493.80291 475.62471,493.59781 L 377.62525,493.59781 L 377.62525,594.57972 C 376.14944,600.91172 371.65814,611.34892 357.86354,608.69682 C 338.42962,604.96052 351.39065,573.22382 323.31944,586.30102 C 314.15056,593.88882 309.10362,607.03922 307.41670,620.00292 C 307.39035,620.20532 307.34805,620.41832 307.32334,620.62072 C 306.36063,625.17962 305.87280,630.39602 306.07851,635.94252 z " />
    <path
       style="fill:#0000ff;fill-opacity:1.0000000;fill-rule:evenodd;stroke:#000000;stroke-width:12.402227;stroke-linejoin:round;stroke-dasharray:none"
       sodipodi:nodetypes="cccccccccccccccccccccccccccccccccccccccccccc"
       id="path5062"
       d="M 232.71100,422.16312 C 217.57439,422.71621 200.59568,427.75142 191.53816,438.53521 C 178.36359,466.39882 210.36771,453.53361 214.13187,472.82391 C 217.89604,492.11422 195.30378,493.18102 195.30378,493.18102 L 195.30378,493.18102 L 97.957880,493.18102 C 97.957880,493.18102 98.082360,589.00412 98.082360,589.00412 C 98.082360,589.00412 99.157070,611.42932 118.59098,607.69292 C 134.38103,604.65712 128.78143,583.10092 141.18469,582.14632 C 144.04697,581.92602 147.87173,582.81422 153.13508,585.26622 C 163.99918,594.25682 169.07188,611.11002 169.62911,626.13472 C 169.83482,631.68112 169.34698,636.89752 168.38428,641.45662 C 168.35957,641.65892 168.31726,641.87182 168.29091,642.07442 C 166.60401,655.03802 161.55707,668.18852 152.38818,675.77612 C 124.31697,688.85332 137.27799,657.08582 117.84408,653.34942 C 103.68466,650.62722 99.310560,661.73042 97.957880,667.99172 L 97.957880,769.71492 L 199.13164,769.71492 C 205.30722,770.91912 217.29732,775.14082 214.47420,789.60862 C 210.71004,808.89892 178.73703,796.03362 191.91161,823.89732 C 199.55582,832.99842 212.80422,838.00802 225.86442,839.68242 C 226.06839,839.70862 226.28299,839.75072 226.48683,839.77522 C 231.07981,840.73082 236.33500,841.21492 241.92276,841.01082 C 257.05936,840.45762 274.03807,835.42252 283.09559,824.63872 C 296.27016,796.77502 264.26605,809.64022 260.50188,790.35002 C 256.73771,771.05972 279.32997,769.99292 279.32997,769.99292 L 376.11570,769.71492 C 376.11570,769.71492 375.49327,672.59442 375.49328,672.59442 C 375.49328,672.59442 374.41857,650.16912 354.98467,653.90552 C 335.55075,657.64182 348.51176,689.40942 320.44057,676.33222 C 309.57647,667.34162 304.50375,650.48842 303.94654,635.46372 C 303.74083,629.91732 304.22865,624.70092 305.19137,620.14192 C 305.21608,619.93962 305.25837,619.72662 305.28473,619.52412 C 306.97164,606.56052 312.01857,593.41002 321.18747,585.82232 C 326.45082,583.37032 330.27557,582.48202 333.13786,582.70232 C 345.54111,583.65692 339.94151,605.18232 355.73157,608.21812 C 373.86420,611.70432 375.90910,593.05482 376.11570,590.45592 L 376.11570,493.18102 L 274.38176,493.18102 C 268.00265,491.71601 257.48766,487.25792 260.15955,473.56531 C 263.92371,454.27501 295.89672,467.14031 282.72214,439.27652 C 275.07792,430.17552 261.82953,425.16582 248.76934,423.49142 C 248.56535,423.46522 248.35076,423.42322 248.14692,423.39871 C 243.55394,422.44311 238.29875,421.95891 232.71100,422.16312 z " />
  </g>
</svg>
