<?xml version="1.0" encoding="UTF-8" standalone="no"?>
<!-- Created with Inkscape (http://www.inkscape.org/) -->
<svg
   xmlns:svg="http://www.w3.org/2000/svg"
   xmlns="http://www.w3.org/2000/svg"
   version="1.0"
   width="372.04724"
   height="524.40942"
   id="svg2">
  <defs
     id="defs4" />
  <g
     id="layer1">
    <path
       d="M 183,342.90942 C 183,342.90942 176.25,358.15942 172.5,371.90942 C 168.75,385.65942 167.5,389.40942 167.5,389.40942 C 167.5,409.40942 160.625,420.03442 162.5,444.40942 C 164.375,468.78442 165.73684,490.90504 175,494.40942 C 172.5,499.40942 172.5,501.90942 167.5,501.90942 C 155,501.90942 155,494.40942 155,493.15942 C 155,486.90942 155,489.40942 152.5,481.90942 C 148.46887,469.81604 138.24457,452.77656 136.82609,425.5656 C 135.40761,398.35465 145.97507,403.23618 145,376.90942 C 144,349.90942 141.5,325.40942 141.5,325.40942 C 141.5,325.40942 141.5,319.40942 141,315.40942 C 143.5,312.40942 143.25,312.15942 145,309.40942 C 160.25,324.65942 160,339.40942 160,339.40942 C 160,339.40942 168,336.90943 175.5,319.40943 C 175.5,329.40943 178.625,335.65942 180.5,338.90942 C 182.375,342.15942 183,342.90942 183,342.90942 z "
       style="fill:#deaa87;fill-opacity:1;fill-rule:evenodd;stroke:#000000;stroke-width:1;stroke-linecap:butt;stroke-linejoin:miter;stroke-miterlimit:4;stroke-opacity:1"
       id="path18926" />
    <path
       d="M 180,486.90942 C 185,489.40942 184.26316,497.9138 175,494.40942 C 165.73684,490.90504 164.375,468.78442 162.5,444.40942 C 160.625,420.03442 167.5,409.40942 167.5,389.40942 C 167.5,389.40942 168.75,385.65942 172.5,371.90942 C 176.25,358.15942 183,342.90942 183,342.90942 C 183,342.90942 185.25,345.28442 187,346.90942 C 188.75,348.53442 190,349.40942 190,349.40942 C 190,349.40942 190,334.40942 205,314.40942 C 205,324.40942 207.5,329.40942 207.5,329.40942 C 207.5,329.40942 202.5,349.40942 195,364.40942 C 187.83563,378.73815 185,389.40942 185,389.40942 C 185,389.40942 185,414.40942 172.5,464.40942 C 169.4683,476.5362 175,484.40942 180,486.90942 z "
       style="fill:#deaa87;fill-opacity:1;fill-rule:evenodd;stroke:#000000;stroke-width:1px;stroke-linecap:butt;stroke-linejoin:miter;stroke-opacity:1"
       id="path14051" />
    <path
       d="M 207.7803,99.409424 C 207.7803,99.409424 220.32367,71.65283 233.51083,49.409424 C 246.698,27.166018 260.52896,10.4358 263.10414,12.750685 C 267.867,17.032125 254.07376,31.539784 244.05207,54.582978 C 234.03037,77.626172 225,104.92346 225,104.92346"
       style="fill:#a0bcb8;fill-rule:evenodd;stroke:#000000;stroke-width:1px;stroke-linecap:butt;stroke-linejoin:miter;stroke-opacity:1"
       id="path4153" />
    <path
       d="M 182.5,184.40942 C 182.5,184.40942 173.07828,147.052 150,112.1825 C 125,74.409424 125,74.409424 100,56.117349 C 70.209745,34.320326 42.761815,25.752183 36.054713,33.627734 C 29.34761,41.503285 54.52139,53.362295 75,83.654265 C 95.478612,113.94623 94.420133,121.10979 109.01227,149.40942 C 114.90411,160.8359 115.28835,173.22335 125,189.40942 C 132.5,201.90942 134.5,201.40942 142,203.90942"
       style="fill:#a4bcb8;fill-rule:evenodd;stroke:#000000;stroke-width:1.16286123px;stroke-linecap:butt;stroke-linejoin:miter;stroke-opacity:1"
       id="path4151" />
    <path
       d="M 172.5,236.90942 L 167.5,185.90942 C 167.5,185.90942 165,179.40942 157.5,179.40942 C 150,179.40942 145,179.40942 137.5,184.40942 C 130,189.40942 127.5,194.40942 125,201.90942 C 122.43065,209.61747 122.5,216.90942 127.5,226.90942 C 132.5,236.90942 136.875,241.90942 145,244.40942 C 153.125,246.90942 155.625,246.28442 162.5,244.40942 C 169.375,242.53442 172.5,236.90942 172.5,236.90942 L 172.5,236.90942 L 172.5,236.90942 z "
       style="fill:#90b8c0;fill-opacity:1;fill-rule:evenodd;stroke:#000000;stroke-width:1px;stroke-linecap:butt;stroke-linejoin:miter;stroke-opacity:1"
       id="path13076" />
    <path
       d="M 245,139.40942 C 235,159.40942 240,159.40942 240,169.40942 C 240,174.40942 235,184.40942 220,189.40942 C 210.51317,192.5717 190,183.04067 190,169.40942 C 187.5,164.40942 180,164.40942 180,164.40942 C 180,164.40942 175,154.40942 175,144.40942 C 180,154.40942 180,154.40942 185,159.40942 C 185,154.40942 183.5061,143.99786 185,144.40942 C 186.49391,144.82097 191.09264,138.31678 195,134.40942 C 200,129.40942 200,124.40942 200,124.40942 C 200,124.40942 206.66146,126.07088 215,134.40942 C 220,139.40942 225,144.40942 220,154.40942 C 230,144.40942 230,144.40942 235,139.40942 C 239.04594,135.36348 240,134.40942 240,129.40942 C 242.5,134.40942 240,134.40942 245,139.40942 z "
       style="fill:#deaa87;fill-opacity:1;stroke:#000000;stroke-width:1;stroke-miterlimit:4;stroke-opacity:1"
       id="path4109" />
    <path
       d="M 205,99.409424 C 210,94.409424 204.47214,76.645492 200,74.409424 C 190,69.409424 180,69.409424 170,79.409424 C 160.77198,88.63744 155,94.409424 150,94.409424 C 140.89986,94.409424 140,89.409424 140,89.409424 C 140,89.409424 147.5,109.40942 160,114.40942 C 172.5,119.40942 175,114.40942 175,114.40942"
       style="fill:#ffff00;fill-opacity:1;fill-rule:evenodd;stroke:#000000;stroke-width:1px;stroke-linecap:butt;stroke-linejoin:miter;stroke-opacity:1"
       id="path4149" />
    <path
       d="M 180,164.40942 C 176.91823,160.87131 174.08663,154.80679 172.4676,150.04987 C 170.84858,145.29294 170,140.01832 170,134.40942 C 170,131.60497 169.46875,126.90014 170,124.40942 C 170.53126,121.91871 170,124.40942 175,114.40942 C 178.16228,108.08487 185.48084,105.69858 187.60824,104.568 C 189.73565,103.43743 192.00968,102.4874 194.40391,101.72317 C 196.79814,100.95893 202.39184,99.796804 205,99.409424 C 207.60816,99.022047 207.23079,99.409424 210,99.409424 C 215.53842,99.409424 216.14905,102.88095 222.5,104.40942 C 225,104.40942 233.4423,104.86148 235,104.40942 C 236.5577,103.95736 240,99.409424 240,94.409424 C 245,104.40942 245,104.40942 240,109.40942 C 245,109.40942 255,104.40942 260,109.40942 C 255,109.40942 255,109.40942 250,114.40942 C 252.4952,114.26986 260,114.40942 265,124.40942 C 260,124.40942 260,119.40943 250,119.40942 C 260,124.40942 260,129.40942 260,134.40942 C 260,144.48725 250,154.40942 250,154.40942 C 250,154.40942 255,149.40942 250,144.40942 C 245,139.40942 247.5,141.90942 246.25,140.65942 C 240,134.40942 241.08174,133.74234 240,129.40942 C 238.91826,125.0765 237.5,119.40942 235,114.40942 C 232.63461,111.43664 240,124.40942 240,129.40942 C 240,134.40942 239.04594,135.36348 235,139.40942 C 230,144.40942 230,144.40942 220,154.40942 C 225,144.40942 220,139.40942 215,134.40942 C 206.66146,126.07088 200,124.40942 200,124.40942 C 200,124.40942 200,129.40942 195,134.40942 C 191.09264,138.31678 186.49391,144.82097 185,144.40942 C 183.5061,143.99786 185,154.40942 185,159.40942 C 180,154.40942 180,154.40942 175,144.40942 C 175,154.40942 180,164.40942 180,164.40942"
       style="fill:#ffff00;fill-opacity:1;fill-rule:nonzero;stroke:#000000;stroke-width:1px;stroke-linecap:butt;stroke-linejoin:miter;stroke-opacity:1"
       id="path4161" />
    <path
       d="M 236,156.40942 C 235,159.40942 229.58114,163.49056 228,161.90942 C 227,160.90942 228,156.40942 229,154.40942 C 230.10653,152.19637 233,148.40942 235,149.40942 C 237.52982,150.67433 236.62673,154.52923 236,156.40942 z "
       style="fill:#ffffff;fill-opacity:1;stroke:#000000;stroke-width:0.99999994;stroke-opacity:1"
       id="path4163" />
    <path
       d="M 208.30907,96.639644 C 208.50719,100.79419 206.13644,103.97204 204.38176,105.04646 C 201.44577,106.43027 197.60828,100.89817 197.60828,96.982857 C 197.60828,93.067551 201.37735,90.474278 203.98455,91.0089 C 207.2763,91.683894 208.16315,93.579598 208.30907,96.639644 z "
       transform="matrix(1.0532806,-0.6273119,0.7894267,0.8369813,-85.697821,204.19861)"
       style="fill:#ffffff;fill-opacity:1;stroke:#000000;stroke-opacity:1"
       id="path4165" />
    <path
       d="M 214,145.40942 C 214,145.40942 209.55756,141.59528 206,140.40942 C 203,139.40942 203,139.40942 200,140.40942 C 196.69659,141.51056 193,145.40942 193,145.40942"
       style="fill:none;fill-rule:evenodd;stroke:#000000;stroke-width:1px;stroke-linecap:butt;stroke-linejoin:miter;stroke-opacity:1"
       id="path4167" />
    <path
       d="M 201,152.40942 C 201,152.40942 198.25,151.65942 197,150.40942 C 195.75,149.15942 196,147.40942 196,147.40942"
       style="fill:none;fill-rule:evenodd;stroke:#000000;stroke-width:1px;stroke-linecap:round;stroke-linejoin:miter;stroke-opacity:1"
       id="path3327" />
    <path
       d="M 200,153.40942 C 200,153.40942 197.25,153.15942 195,152.40942 C 192.75,151.65942 191.5,149.90942 191.5,149.90942"
       style="fill:none;fill-rule:evenodd;stroke:#000000;stroke-width:1px;stroke-linecap:round;stroke-linejoin:miter;stroke-opacity:1"
       id="path3329" />
    <path
       d="M 198,154.90942 C 198,154.90942 195.75,154.90942 194,154.40942 C 192.25,153.90942 190,152.40942 190,152.40942 L 190,152.40942 L 190,152.40942"
       style="fill:none;fill-rule:evenodd;stroke:#000000;stroke-width:1px;stroke-linecap:round;stroke-linejoin:miter;stroke-opacity:1"
       id="path3331" />
    <path
       d="M 197.5,156.40942 L 193.5,156.40942 L 193,156.40942"
       style="fill:none;fill-rule:evenodd;stroke:#000000;stroke-width:1px;stroke-linecap:round;stroke-linejoin:miter;stroke-opacity:1"
       id="path3333" />
    <path
       d="M 207,156.40942 C 207,157.40943 207,160.40942 206,161.40942 C 205,162.40942 202.09086,164.68647 199,161.40942 C 195.90916,158.13238 197.97363,153.9226 201,152.40942 C 206,152.40942 207,154.99521 207,156.40942 z "
       style="fill:#008080;fill-opacity:1;stroke:#000000;stroke-width:1.17336822;stroke-opacity:1"
       id="path6244" />
    <path
       d="M 203 157.40942 A 1.5 2 0 1 1  200,157.40942 A 1.5 2 0 1 1  203 157.40942 z"
       transform="matrix(1.6085636,0,0,1.2064658,-122.75048,-32.999663)"
       style="fill:#000000;fill-opacity:1;stroke:#000000;stroke-width:0.12499997;stroke-miterlimit:4;stroke-dasharray:none;stroke-opacity:1"
       id="path6246" />
    <path
       d="M 234,155.40942 C 234,157.64549 230.5,159.40942 229.5,159.40942 C 228.08579,159.40942 228,156.40942 229,154.40942 C 230.10653,152.19637 232,150.40942 233,151.40942 C 234,152.40942 234,154.40942 234,155.40942 z "
       style="fill:#008080;fill-opacity:1;stroke:#000000;stroke-width:0.99999994;stroke-opacity:1"
       id="path8187" />
    <path
       d="M 232 154.40942 A 1 1 0 1 1  230,154.40942 A 1 1 0 1 1  232 154.40942 z"
       transform="translate(-0.5,0.5)"
       style="fill:#000000;fill-opacity:1;stroke:#000000;stroke-width:1;stroke-miterlimit:4;stroke-dasharray:none;stroke-opacity:1"
       id="path9158" />
    <path
       d="M 234.5,148.90942 C 234.5,148.90942 235.25,148.65942 236,147.40942 C 236.75,146.15942 237,144.40942 237,144.40942 L 237,144.40942"
       style="fill:none;fill-rule:evenodd;stroke:#000000;stroke-width:1px;stroke-linecap:round;stroke-linejoin:miter;stroke-opacity:1"
       id="path9160" />
    <path
       d="M 236.5,149.90942 C 236.5,149.90942 237.75,149.65942 239,148.40942 C 240.25,147.15942 241,145.40942 241,145.40942"
       style="fill:none;fill-rule:evenodd;stroke:#000000;stroke-width:1px;stroke-linecap:round;stroke-linejoin:miter;stroke-opacity:1"
       id="path9162" />
    <path
       d="M 237,152.40942 C 237,152.40942 238.75,151.90942 240,151.40942 C 241.25,150.90942 242,149.40942 242,149.40942"
       style="fill:none;fill-rule:evenodd;stroke:#000000;stroke-width:1px;stroke-linecap:round;stroke-linejoin:miter;stroke-opacity:1"
       id="path9164" />
    <path
       d="M 195,194.40942 C 195,194.40942 197.5,198.15942 200,199.40942 C 202.5,200.65942 205,199.40942 205,199.40942 L 205,199.40942"
       style="fill:none;fill-rule:evenodd;stroke:#000000;stroke-width:1px;stroke-linecap:butt;stroke-linejoin:miter;stroke-opacity:1"
       id="path13052" />
    <path
       d="M 205,244.40942 C 205,244.40942 208.75,253.15942 215,259.40942 C 220,264.40942 229.5,267.40942 229.5,267.40942 C 234.5,267.40942 238.12233,261.20554 239.5,258.90942 C 241,256.40942 242,256.40943 246,254.40943 C 246,254.40943 240.5,249.90942 235.5,259.90942 C 235.5,249.90942 235,247.90942 241.5,239.90942 C 236.5,239.90942 231,250.90942 231,250.90942 C 231,250.90942 231.5,245.90942 235,239.90942 C 231.5,239.40942 227.5,249.90942 227.5,249.90942 C 227.5,249.90942 228.5,245.40942 230.5,241.40942 C 228.41991,242.65296 227.12729,247.0831 226.5,248.40942 C 226.32827,247.05019 228,243.40942 228,242.90942 C 224.5,245.40942 225,249.40942 225,249.40942 C 225,249.40942 230,259.40942 230,259.40942 C 230,259.40942 227.5,254.40942 225,249.40942 C 221.7404,242.89022 215,234.40942 215,234.40942"
       style="fill:#deaa87;fill-opacity:1;fill-rule:evenodd;stroke:#000000;stroke-width:1px;stroke-linecap:butt;stroke-linejoin:miter;stroke-opacity:1"
       id="path13063" />
    <path
       d="M 155,494.40942 C 153.41886,497.5717 152.5,499.40942 152.5,504.40942 C 155,506.90942 160,504.40942 180,511.90942 C 185,514.40942 205,509.40942 202.5,504.40942 C 199.31311,498.03565 186.98684,498.40504 175,494.40942 M 155,494.40942 C 155,494.40942 155,501.90942 167.5,501.90942 C 172.5,501.90942 175,494.40942 175,494.40942 L 175,494.40942"
       style="fill:#808000;fill-opacity:1;fill-rule:evenodd;stroke:#000000;stroke-width:1;stroke-linecap:butt;stroke-linejoin:miter;stroke-miterlimit:4;stroke-opacity:1"
       id="path18924" />
    <path
       d="M 180,486.90942 C 190,489.40942 203.75,483.78442 207.5,486.90942 C 211.25,490.03442 195,499.40942 195,499.40942 C 195,499.40942 190.39369,498.08816 184.5,496.90942 C 172,494.40942 172,492.40942 172,492.40942 C 172,492.40942 174.375,493.15942 177.5,491.90942 C 180.625,490.65942 180,486.90942 180,486.90942"
       style="fill:#808000;fill-opacity:1;fill-rule:evenodd;stroke:#000000;stroke-width:1px;stroke-linecap:butt;stroke-linejoin:miter;stroke-opacity:1"
       id="path3215" />
    <path
       d="M 167.5,389.40942 L 162.5,396.90942"
       style="fill:none;fill-rule:evenodd;stroke:#000000;stroke-width:1px;stroke-linecap:butt;stroke-linejoin:miter;stroke-opacity:1"
       id="path14055" />
    <path
       d="M 185,389.40942 L 180,396.90942"
       style="fill:none;fill-rule:evenodd;stroke:#000000;stroke-width:1px;stroke-linecap:butt;stroke-linejoin:miter;stroke-opacity:1"
       id="path14057" />
    <path
       d="M 132.5,321.90942 C 132.5,321.90942 134.5,324.40942 132,331.90942 C 137,330.65942 140.5,327.47192 141.5,325.40942 C 142.5,323.34692 141.5,315.40942 141.5,315.40942"
       style="fill:#808000;fill-rule:evenodd;stroke:#000000;stroke-width:1px;stroke-linecap:butt;stroke-linejoin:miter;stroke-opacity:1"
       id="path14059" />
    <path
       d="M 212.5,183.90942 C 216.5,185.40942 221,185.40942 221,185.40942 C 221,185.40942 225.5,183.40942 225.5,183.40942 C 226,185.90942 224.5,189.90942 220,189.90942 C 214,188.40943 215.769,185.02492 212.5,183.90942 z "
       style="fill:#ff0000;fill-opacity:1;fill-rule:evenodd;stroke:#000000;stroke-width:1px;stroke-linecap:butt;stroke-linejoin:round;stroke-opacity:1"
       id="path14061" />
    <path
       d="M 225.72222,175.90942 C 225.72222,175.90942 227.59722,174.90942 228.22222,173.90942 C 228.84722,172.90942 228.22222,171.90942 228.22222,171.90942"
       style="fill:none;fill-rule:evenodd;stroke:#000000;stroke-width:1px;stroke-linecap:round;stroke-linejoin:miter;stroke-opacity:1"
       id="path14065" />
    <path
       d="M 221,174.90942 C 221,174.90942 221.875,175.90942 222.5,175.90942 C 223.125,175.90942 223.5,174.90942 223.5,174.90942"
       style="fill:none;fill-rule:evenodd;stroke:#000000;stroke-width:1px;stroke-linecap:round;stroke-linejoin:miter;stroke-opacity:1"
       id="path14067" />
    <path
       d="M 225.50686,159.40942 C 225.50686,159.40942 223.63186,161.03442 223.50686,162.90942 C 223.38186,164.78442 225.00686,166.90942 225.00686,166.90942"
       style="fill:none;fill-rule:evenodd;stroke:#000000;stroke-width:1px;stroke-linecap:round;stroke-linejoin:miter;stroke-opacity:1"
       id="path14069" />
    <path
       d="M 212.5,183.90942 C 216,184.40942 218.5,182.40942 222.5,182.40942 C 224,181.90942 227.5,180.40942 225.5,183.40942 C 225.5,183.40942 221,185.40943 221,185.40942 C 221,185.40943 214,184.97193 212.5,183.90942 z "
       style="fill:#ff0000;fill-opacity:1;fill-rule:evenodd;stroke:#000000;stroke-width:1px;stroke-linecap:butt;stroke-linejoin:round;stroke-opacity:1"
       id="path22845" />
    <path
       d="M 220,216.90942 C 220,216.90942 219.75,212.65942 218,208.90942 C 216.25,205.15942 212,201.90942 212,201.90942"
       style="fill:none;fill-rule:evenodd;stroke:#000000;stroke-width:1px;stroke-linecap:butt;stroke-linejoin:miter;stroke-opacity:1"
       id="path5116" />
    <path
       d="M 220,219.40942 C 220,219.40942 218.75,208.15942 215,209.40942 C 211.25,210.65942 205,224.40942 205,224.40942 C 205,224.40942 198.75,203.15942 190,204.40942 C 181.25,205.65942 176.94457,210.89058 170,229.40942 C 170,229.40942 176.25,236.90942 170,249.40942 C 163.75,261.90942 158.75,260.65942 145,279.40942 C 131.25,298.15942 140,309.40942 115,324.40942 C 125,324.40942 128.125,324.40942 132.5,321.90942 C 136.875,319.40942 142.5,314.40942 145,309.40942 C 160,324.40942 160,339.40942 160,339.40942 C 160,339.40942 168,337.40942 175.5,319.90942 C 175.5,339.90942 190,349.40942 190,349.40942 C 190,349.40942 190,334.40942 205,314.40942 C 205,329.40942 210,339.40942 225,339.40942 C 205,329.40942 216.51921,308.96703 210,289.40942 C 205,274.40942 200,271.90942 200,259.40942 C 200,254.40942 201.29475,248.11466 210,239.40942 C 215,234.40942 220,229.40942 220,214.40942"
       style="fill:#808000;fill-opacity:1;fill-rule:evenodd;stroke:#000000;stroke-width:1px;stroke-linecap:butt;stroke-linejoin:miter;stroke-opacity:1"
       id="path13046" />
    <path
       d="M 165,213.90942 L 175,203.90942"
       style="fill:#deaa87;fill-opacity:1;fill-rule:evenodd;stroke:#000000;stroke-width:1px;stroke-linecap:butt;stroke-linejoin:miter;stroke-opacity:1"
       id="path11025" />
    <path
       d="M 74.75,229.40942 C 74.75,229.40942 83.447933,229.28442 100,224.40942 C 116.55207,219.53442 120,216.90942 130,216.90942 C 135,211.90942 140,204.40942 147.5,199.40942 C 157.90063,192.47567 162.5,188.15942 170,184.40942 C 177.5,180.65942 180,185.65942 185,184.40942 C 190,183.15942 188.75,183.15942 190,179.40942 C 191.25,175.65942 190,169.40942 190,169.40942 C 190,169.40942 190.5,176.90942 196.5,182.40942 C 202.5,186.90942 205.5,187.90942 205.5,187.90942 C 205.5,187.90942 204.54232,188.24012 204,190.40942 C 203.5,192.40942 205,194.40942 205.25,194.40942 C 205.5,194.40942 216.25,194.40943 220,204.40942 C 220.51777,207.94496 220,211.90942 220,216.90942 C 220,221.90942 220,219.40942 220,219.40942 C 220,219.40942 218.75,208.15942 215,209.40942 C 211.25,210.65942 205,224.40942 205,224.40942 C 205,224.40942 198.75,203.15942 190,204.40942 C 181.25,205.65942 177.19457,209.89059 170,228.90942 L 165,213.90942 C 164.75,213.65942 162.5,217.65942 150,223.90942 C 137.5,230.15942 132.5,236.90942 115,239.40942 C 97.5,241.90942 69.75,239.40942 69.5,239.40942 C 69.25,239.40942 68,237.15942 66.5,234.40942 C 65,231.65942 65,230.78442 64,228.40942 C 63,226.03442 62.5,224.90942 62.5,224.90942 L 52.5,225.90942 L 60.5,222.90942 C 57.166667,223.90942 51.5,225.40943 51,225.40942 C 51.5,224.40943 56.478722,222.41753 59.5,220.90942 C 59.5,220.90942 53.350439,223.90942 50.5,223.90942 C 49.5,223.90942 49.499997,223.40942 49.5,223.40942 C 55,219.90942 58,217.90942 58,217.90942 L 57.5,216.90942 C 57.5,216.90942 52.375,216.53442 50,215.90942 C 47.625,215.28442 48,214.40942 48,214.40942 C 48,214.40942 48.84375,214.40942 50.164062,214.41723 C 51.484375,214.42505 55.09375,214.37817 57,214.40942 C 58.90625,214.44067 57.242188,214.33911 59,214.40942 C 60.757812,214.47973 64.125,214.78442 65,214.90942 C 66,215.40942 70,219.40942 70,219.40942 L 74.75,229.40942 z "
       style="fill:#deaa87;fill-opacity:1;fill-rule:evenodd;stroke:#000000;stroke-width:1px;stroke-linecap:butt;stroke-linejoin:miter;stroke-opacity:1"
       id="path11023" />
    <path
       d="M 62.527435,224.90942 C 62.527435,224.90942 56.027435,216.90943 56.527435,210.40942 C 60.027435,217.40943 66.527435,220.40942 66.527435,220.40942"
       style="fill:#deaa87;fill-opacity:1;fill-rule:evenodd;stroke:#000000;stroke-width:1px;stroke-linecap:butt;stroke-linejoin:miter;stroke-opacity:1"
       id="path13074" />
    <path
       d="M 197.5 488.15942 A 6.25 6.25 0 1 1  185,488.15942 A 6.25 6.25 0 1 1  197.5 488.15942 z"
       transform="matrix(1.1188829,0,0,0.9188829,-26.48635,39.598088)"
       style="fill:#ffff00;fill-opacity:1;stroke:#000000;stroke-opacity:1"
       id="path2302" />
    <path
       d="M 197.5 488.15942 A 6.25 6.25 0 1 1  185,488.15942 A 6.25 6.25 0 1 1  197.5 488.15942 z"
       transform="matrix(1.1929322,0,0,0.9929322,-48.648289,11.450199)"
       style="fill:#ffff00;fill-opacity:1;stroke:#000000;stroke-opacity:1"
       id="path3273" />
    <path
       d="M 186.89517,104.15873 C 186.77184,103.6513 186.74919,103.12913 186.71151,102.6105 C 186.62609,102.11606 186.54256,101.6219 186.47479,101.1245 C 186.34259,100.49668 186.29335,99.857189 186.23565,99.219555 C 186.18059,98.630824 186.18884,98.039094 186.20706,97.450112 C 186.25309,96.924639 186.40605,96.421173 186.54135,95.914287 C 186.71607,95.276284 186.92383,94.647069 187.1271,94.017586 C 187.41269,93.140066 187.72887,92.271825 188.04908,91.40616 C 188.3885,90.517698 188.84328,89.681267 189.35638,88.882623 C 189.79584,88.185649 190.30685,87.539201 190.81456,86.891714 C 191.31297,86.228721 191.98453,85.758528 192.67487,85.316913 C 193.85451,84.531003 195.10547,83.866024 196.34494,83.183204 C 196.9738,82.893154 197.65054,82.8196 198.3301,82.758591 C 199.02553,82.720942 199.72123,82.737347 200.41418,82.774539 C 201.17527,82.85454 201.90054,83.09137 202.61482,83.354251 C 203.18818,83.556184 203.66418,83.88255 204.12027,84.271536 C 204.54536,84.751401 204.93662,85.25972 205.334,85.762381 C 205.63692,86.127575 205.88846,86.525859 206.10761,86.944429 C 206.31725,87.375536 206.38775,87.8464 206.4622,88.314253 C 206.50346,88.840914 206.50407,89.370003 206.50799,89.897977 C 206.48617,90.475131 206.32642,91.014472 206.13253,91.552047 C 205.91782,92.087066 205.54979,92.514725 205.17418,92.940541 C 204.79477,93.354496 204.45973,93.805441 204.11009,94.244125 C 203.64476,94.741349 203.19889,95.256775 202.70978,95.730933 C 202.16621,96.222826 201.61888,96.710503 201.06518,97.190925 C 200.54217,97.657031 199.99808,98.098565 199.44355,98.526496 C 198.86353,98.946623 198.24455,99.309664 197.63631,99.686928 C 192.27227,102.75907 198.87076,98.982634 196.35726,100.46469 C 195.75954,100.81713 195.15653,101.16051 194.55616,101.50842 C 193.93475,101.87364 193.26199,102.13815 192.60142,102.42338 C 192.07056,102.65581 191.52589,102.8391 190.96678,102.98186 C 190.40088,103.06595 189.86269,103.2667 189.32156,103.44459 C 188.92675,103.58033 188.54649,103.72971 188.13941,103.8202 C 187.73993,103.8589 187.33878,103.86966 186.93788,103.88135 L 188.40622,102.80961 C 188.80142,102.7984 189.19903,102.79513 189.58898,102.7216 C 189.97663,102.59641 190.36157,102.46235 190.74995,102.33771 C 191.29163,102.16188 191.83302,101.98242 192.39704,101.89055 C 192.93985,101.72307 193.48132,101.54721 194.00179,101.31561 C 194.6646,101.02799 195.33584,100.75365 195.95512,100.37764 C 191.67212,102.88438 200.38605,97.701312 195.9674,100.33293 C 196.57619,99.953477 197.19639,99.591336 197.78861,99.186189 C 198.3438,98.767768 198.88269,98.327019 199.40167,97.864515 C 199.96357,97.389377 200.51023,96.897363 201.06053,96.408804 C 201.55421,95.952549 201.97767,95.431449 202.4496,94.953918 C 202.80752,94.517838 203.13589,94.05959 203.51067,93.637745 C 203.88606,93.226595 204.26645,92.824732 204.49645,92.308157 C 204.70305,91.79231 204.8596,91.278545 204.89761,90.718961 C 204.89641,90.198783 204.90396,89.677386 204.85516,89.158855 C 204.7947,88.706041 204.73595,88.251888 204.51997,87.840725 C 204.30378,87.43924 204.08968,87.036357 203.79187,86.684307 C 203.40168,86.188108 203.02478,85.679076 202.5854,85.224342 C 202.14292,84.859098 201.68302,84.54493 201.13471,84.351124 C 200.42589,84.101558 199.70952,83.871429 198.95406,83.814942 C 198.26479,83.787693 197.57408,83.772867 196.88473,83.826725 C 196.21805,83.901391 195.55837,83.99078 194.94934,84.297339 C 195.36305,84.033599 196.58593,83.255151 194.3249,84.676183 C 193.63783,85.102604 192.9606,85.546101 192.4555,86.190517 C 191.93581,86.82908 191.42682,87.479481 190.97918,88.171274 C 190.45228,88.955977 189.99411,89.785367 189.64241,90.664213 C 189.32549,91.520332 189.0217,92.382517 188.74334,93.25164 C 188.54917,93.875791 188.33946,94.496738 188.17182,95.128721 C 188.04413,95.632266 187.87242,96.126543 187.8249,96.647518 C 187.78743,97.228317 187.78252,97.810445 187.82732,98.393578 C 187.87542,99.027905 187.92177,99.66372 188.08369,100.28194 C 188.13979,100.78583 188.2187,101.28469 188.31186,101.78313 C 188.34368,102.28785 188.36264,102.79792 188.50881,103.2861 L 186.89517,104.15873 z "
       style="fill:#808000;fill-opacity:1;stroke:#000000;stroke-opacity:1"
       id="path4262" />
    <path
       d="M 186.3688,104.12964 C 185.87225,103.68533 185.31317,103.31052 184.76525,102.93179 C 184.25598,102.55314 183.71356,102.22356 183.16355,101.90924 C 182.64264,101.64048 182.08446,101.45137 181.52672,101.2748 C 181.06678,101.13165 180.62735,100.93651 180.17438,100.7742 C 179.66412,100.54932 179.10684,100.44759 178.56567,100.31959 C 177.96102,100.1916 177.3579,100.06655 176.74645,99.973328 C 176.32363,99.950767 175.91656,99.834942 175.50374,99.748495 C 174.97163,99.668658 174.43225,99.670243 173.8956,99.660426 C 173.31292,99.651097 172.73017,99.659039 172.1475,99.665264 C 171.75702,99.758994 171.36852,99.843906 170.98387,99.95906 C 170.51566,100.15822 170.03662,100.32264 169.56683,100.51834 C 169.11668,100.71998 168.66202,100.90747 168.21811,101.12262 C 167.74681,101.32766 167.2827,101.5375 166.82774,101.77886 C 169.49027,100.12011 167.56724,101.3953 166.99167,101.84759 C 166.54217,102.22 166.15756,102.66121 165.76606,103.09184 C 165.42614,103.4258 165.21699,103.7995 165.06866,104.24131 C 164.98509,104.57189 165.00636,104.90839 165.01579,105.24218 C 165.12671,105.63358 165.34155,105.98656 165.51228,106.35508 C 165.71966,106.83743 165.9959,107.28019 166.28666,107.71499 C 166.61137,108.19959 167.01642,108.62021 167.41289,109.04509 C 167.85553,109.57161 168.39963,109.96913 168.96386,110.35204 C 169.47437,110.7258 170.03908,110.98097 170.61493,111.23156 C 171.22387,111.51556 171.89421,111.61072 172.541,111.77504 C 173.29992,111.95193 174.08266,111.96783 174.85812,111.98569 C 175.55555,112.00909 176.2526,111.99524 176.94716,111.95356 C 177.62041,111.91453 178.21693,111.66936 178.80846,111.37037 C 176.15726,112.96751 177.97593,111.82351 178.5721,111.4227 C 179.12475,111.02007 179.71362,110.67332 180.28903,110.30506 C 180.8288,109.93777 181.36528,109.56566 181.9039,109.19668 C 182.39452,108.8976 182.83078,108.53016 183.25894,108.15072 C 183.64905,107.78397 183.98287,107.3671 184.30942,106.94479 C 184.57561,106.60237 184.79636,106.23095 185.01642,105.85846 C 185.23556,105.51799 185.43416,105.16619 185.63273,104.81444 C 185.72035,104.65437 185.73174,104.47321 185.76855,104.29933 L 187.4002,103.49538 C 187.37466,103.68455 187.37281,103.88061 187.29178,104.05764 C 187.11254,104.42618 186.90249,104.77408 186.67777,105.11757 C 186.45502,105.49692 186.24016,105.88012 185.97135,106.23014 C 185.64594,106.66093 185.31242,107.08565 184.92548,107.46409 C 184.50345,107.85706 184.07704,108.24618 183.57547,108.53902 C 183.03327,108.90792 182.4968,109.28514 181.95346,109.65233 C 181.38703,110.02701 180.79581,110.35918 180.25171,110.76596 C 179.33261,111.39315 178.39919,111.99093 177.4021,112.49579 C 176.79431,112.77028 176.17968,112.98622 175.50423,113.02309 C 174.81082,113.05067 174.11732,113.04626 173.42278,113.02238 C 172.63186,112.99619 171.83191,112.9913 171.06033,112.79401 C 170.40638,112.62717 169.73317,112.51339 169.11549,112.23144 C 168.53577,111.97147 167.97349,111.69496 167.46087,111.3132 C 166.88237,110.92499 166.33481,110.51454 165.88105,109.97863 C 165.47479,109.5479 165.05845,109.12225 164.72656,108.62912 C 164.43236,108.18679 164.15345,107.73648 163.94309,107.24664 C 163.75661,106.86838 163.52579,106.50648 163.40353,106.10179 C 163.3812,105.74573 163.3453,105.38705 163.43233,105.0288 C 163.55044,104.54428 163.74056,104.15223 164.1055,103.79346 C 164.49598,103.35619 164.87993,102.90881 165.32202,102.52178 C 166.21935,101.77972 167.17562,101.16896 168.23389,100.65016 C 168.69479,100.41818 169.16367,100.20632 169.63433,99.994785 C 170.08082,99.788932 170.53289,99.596516 170.9823,99.397026 C 171.4594,99.209943 171.94004,99.032032 172.41992,98.852097 C 172.81423,98.747685 173.21012,98.629787 173.61815,98.596406 C 174.19484,98.601162 174.77152,98.607116 175.34824,98.608032 C 175.899,98.618498 176.45385,98.610691 176.9981,98.708908 C 177.40441,98.800566 177.80981,98.892188 178.22518,98.933111 C 178.83369,99.043062 179.43769,99.172773 180.04337,99.29685 C 180.59361,99.432361 181.15821,99.534501 181.68208,99.755205 C 182.12578,99.93074 182.5632,100.12356 183.02279,100.25572 C 183.58254,100.45415 184.14751,100.65168 184.67603,100.92421 C 185.2197,101.25483 185.76536,101.58458 186.27042,101.97345 C 186.82152,102.36869 187.38768,102.7432 187.92528,103.1563 L 186.3688,104.12964 z "
       style="fill:#808000;fill-opacity:1;stroke:#000000;stroke-opacity:1"
       id="path4264" />
    <path
       d="M 187.00825,104.75296 C 186.45152,104.69726 185.90889,104.77849 185.36162,104.86719 C 184.93142,105.01375 184.49671,105.14524 184.06248,105.27668 C 183.39122,105.52099 182.70047,105.69056 182.00852,105.86378 C 181.33313,106.00957 180.67583,106.21463 180.02533,106.44483 C 179.49833,106.59221 178.97985,106.77355 178.46222,106.94825 C 176.3338,108.02884 182.68346,104.53721 177.22003,107.58919 C 174.43148,109.04938 177.72898,107.149 176.67166,107.83369 C 176.08221,108.22992 175.5529,108.69703 175.04781,109.19239 C 174.56962,109.67665 174.11178,110.18002 173.63173,110.66237 C 173.09869,111.26665 172.52871,111.83238 171.93785,112.37936 C 171.39059,112.84139 170.91603,113.36348 170.48372,113.93224 C 169.96576,114.62915 169.37632,115.26687 168.8119,115.92508 C 168.27636,116.60859 167.76386,117.30972 167.24744,118.00771 C 166.74823,118.69097 166.26158,119.38314 165.75423,120.06049 C 165.32841,120.6386 164.90941,121.22143 164.47776,121.79518 C 164.14989,122.22607 163.81398,122.65086 163.47548,123.07343 C 163.14557,123.48224 162.80623,123.88094 162.49211,124.30213 C 162.05883,124.93591 161.79097,125.668 161.47548,126.36501 C 161.14659,127.21081 160.79221,128.0507 160.534,128.92146 C 160.33606,129.74166 160.13444,130.55054 160.18822,131.39824 C 160.25007,131.92198 160.43508,132.40788 160.64191,132.88777 L 159.08851,133.76147 C 158.86917,133.2638 158.68988,132.75721 158.61251,132.21524 C 158.54443,131.34685 158.72771,130.52511 158.92945,129.68343 C 159.17417,128.79817 159.56179,127.96185 159.87239,127.0984 C 160.18182,126.4026 160.44173,125.67535 160.82997,125.02055 C 161.14034,124.59374 161.47722,124.19169 161.81401,123.78562 C 162.15356,123.36212 162.4892,122.93542 162.82425,122.50831 C 163.26688,121.93089 163.69862,121.3454 164.13097,120.76021 C 164.63595,120.08492 165.11997,119.3946 165.61604,118.71291 C 166.12734,118.00818 166.66399,117.32182 167.17716,116.6183 C 167.73037,115.95429 168.3394,115.3365 168.84947,114.63634 C 169.2772,114.06021 169.72169,113.5103 170.28336,113.0558 C 170.88303,112.51742 171.46718,111.96352 171.98537,111.34423 C 172.46651,110.86632 172.91125,110.35662 173.39607,109.88205 C 173.89141,109.36222 174.42567,108.89394 175.01597,108.48086 C 176.15942,107.70807 177.38035,107.05878 178.62602,106.46859 C 175.7212,108.19315 178.79088,106.26679 179.89189,105.83063 C 180.40968,105.66899 180.92484,105.49855 181.44358,105.33955 C 182.09341,105.12438 182.74751,104.92692 183.4182,104.78558 C 184.11858,104.60893 184.81002,104.40836 185.49393,104.17506 C 185.92817,104.03522 186.36089,103.8848 186.80584,103.78275 C 187.36777,103.70669 187.92719,103.65979 188.49534,103.67252 L 187.00825,104.75296 z "
       style="fill:#808000;fill-opacity:1;stroke:#000000;stroke-opacity:1"
       id="path4266" />
    <path
       d="M 188.62222,103.93726 C 188.2082,104.21314 187.81251,104.51451 187.41468,104.81285 C 186.99988,105.11254 186.59436,105.42465 186.18472,105.7313 C 185.27005,106.43593 184.22753,106.94849 183.22823,107.52081 C 185.41527,106.283 183.16801,107.51923 181.71141,108.33153 C 181.82938,108.40153 183.2548,107.23043 181.57731,108.56778 C 181.04576,109.02929 180.59183,109.57136 180.10895,110.08232 C 179.71074,110.48692 179.37139,110.94018 179.03483,111.3954 C 178.6353,111.91736 178.27718,112.46891 177.90238,113.00853 C 177.5325,113.52351 177.25846,114.08955 176.98151,114.65708 C 176.64215,115.33305 176.30947,116.01275 175.97819,116.69242 C 175.7196,117.28265 175.41931,117.85331 175.14048,118.43414 C 174.8812,118.94295 174.62487,119.45293 174.36181,119.9598 C 174.12558,120.4576 173.86439,120.94269 173.59908,121.4254 C 173.33504,121.92565 173.06902,122.42481 172.80774,122.92656 C 172.49321,123.59917 172.16157,124.26301 171.8238,124.92415 C 171.49459,125.54558 171.11509,126.13741 170.72698,126.72274 C 170.38866,127.30452 169.98097,127.83805 169.56277,128.36301 C 169.13705,128.90285 168.72357,129.44692 168.26662,129.96043 C 167.82025,130.42374 167.48178,130.9774 167.11058,131.50055 C 166.80309,131.9315 166.50362,132.36795 166.1947,132.79775 C 165.99262,133.06033 165.81243,133.33867 165.62605,133.61235 L 163.98413,134.32801 C 164.16574,134.05491 164.34939,133.78314 164.5344,133.51232 C 164.85061,133.08541 165.14984,132.64679 165.4623,132.21696 C 165.83931,131.69205 166.177,131.13123 166.61108,130.65363 C 167.08108,130.15194 167.49991,129.61501 167.91174,129.06411 C 168.3364,128.5482 168.7614,128.02647 169.08189,127.43714 C 169.47887,126.86215 169.86046,126.27712 170.19132,125.66043 C 170.53488,125.00091 170.87788,124.34219 171.18012,123.66223 C 171.42949,123.15711 171.68214,122.65443 171.95465,122.1615 C 172.22242,121.68253 172.48052,121.198 172.71632,120.70248 C 172.97793,120.19295 173.24245,119.68526 173.50755,119.17747 C 173.78239,118.59465 174.08101,118.02386 174.35092,117.4391 C 174.6789,116.75501 175.02082,116.07573 175.35733,115.39488 C 175.6292,114.82176 175.8794,114.2404 176.25655,113.72563 C 176.63497,113.18779 176.98726,112.63231 177.3862,112.10943 C 177.71532,111.6423 178.05238,111.18153 178.45322,110.77176 C 178.94327,110.26189 179.40408,109.72306 179.91827,109.23859 C 180.89686,108.42605 181.94684,107.74325 183.11317,107.20153 C 185.34487,105.99672 179.81417,109.16323 184.62847,106.38773 C 184.71268,106.34029 184.7969,106.29286 184.88112,106.24543 C 184.45284,106.4951 184.02455,106.74478 183.59627,106.99446 C 183.28416,107.17649 184.8584,106.34634 184.50066,106.39698 C 184.91404,106.09254 185.32056,105.77892 185.73842,105.48057 C 186.12905,105.18876 186.51465,104.89036 186.91101,104.6068 L 188.62222,103.93726 z "
       style="fill:#808000;fill-opacity:1;stroke:#000000;stroke-opacity:1"
       id="path4268" />
  </g>
</svg>
