<?xml version="1.0" encoding="UTF-8" standalone="no"?>
<!-- Created with Inkscape (http://www.inkscape.org/) -->
<svg
   xmlns:dc="http://purl.org/dc/elements/1.1/"
   xmlns:cc="http://web.resource.org/cc/"
   xmlns:rdf="http://www.w3.org/1999/02/22-rdf-syntax-ns#"
   xmlns:svg="http://www.w3.org/2000/svg"
   xmlns="http://www.w3.org/2000/svg"
   xmlns:sodipodi="http://sodipodi.sourceforge.net/DTD/sodipodi-0.dtd"
   xmlns:inkscape="http://www.inkscape.org/namespaces/inkscape"
   width="372.04724"
   height="524.40942"
   id="svg2"
   sodipodi:version="0.32"
   inkscape:version="0.45.1"
   version="1.0"
   sodipodi:docbase="/home/steve/data/clipart/karg/fairies"
   sodipodi:docname="fairy-girl.svg"
   inkscape:output_extension="org.inkscape.output.svg.inkscape"
   inkscape:export-filename="/home/steve/data/clipart/karg/fairies/fairy-girl.png"
   inkscape:export-xdpi="90"
   inkscape:export-ydpi="90">
  <defs
     id="defs4" />
  <sodipodi:namedview
     id="base"
     pagecolor="#ffffff"
     bordercolor="#666666"
     borderopacity="1.0"
     inkscape:pageopacity="0.0"
     inkscape:pageshadow="2"
     inkscape:zoom="1.0087538"
     inkscape:cx="186.02362"
     inkscape:cy="255.33207"
     inkscape:document-units="px"
     inkscape:current-layer="layer1"
     showgrid="true"
     inkscape:grid-bbox="true"
     inkscape:grid-points="true"
     gridspacingx="0.5px"
     gridspacingy="0.5px"
     gridtolerance="10000"
     inkscape:guide-points="true"
     guidetolerance="5px"
     inkscape:window-width="1254"
     inkscape:window-height="723"
     inkscape:window-x="20"
     inkscape:window-y="0"
     width="372.04724px"
     height="524.40942px"
     gridempspacing="1" />
  <metadata
     id="metadata7">
    <rdf:RDF>
      <cc:Work
         rdf:about="">
        <dc:format>image/svg+xml</dc:format>
        <dc:type
           rdf:resource="http://purl.org/dc/dcmitype/StillImage" />
        <dc:creator>
          <cc:Agent>
            <dc:title>Steve Karg</dc:title>
          </cc:Agent>
        </dc:creator>
        <dc:publisher>
          <cc:Agent>
            <dc:title>kargs.net</dc:title>
          </cc:Agent>
        </dc:publisher>
        <cc:license
           rdf:resource="http://web.resource.org/cc/PublicDomain" />
        <dc:title>Fairy</dc:title>
        <dc:date>10-January-2008</dc:date>
        <dc:rights>
          <cc:Agent>
            <dc:title>Steve Karg</dc:title>
          </cc:Agent>
        </dc:rights>
        <dc:subject>
          <rdf:Bag>
            <rdf:li>fairy wings cartoon female girl woman</rdf:li>
          </rdf:Bag>
        </dc:subject>
        <dc:description>Winged fairy</dc:description>
      </cc:Work>
      <cc:License
         rdf:about="http://web.resource.org/cc/PublicDomain">
        <cc:permits
           rdf:resource="http://web.resource.org/cc/Reproduction" />
        <cc:permits
           rdf:resource="http://web.resource.org/cc/Distribution" />
        <cc:permits
           rdf:resource="http://web.resource.org/cc/DerivativeWorks" />
      </cc:License>
    </rdf:RDF>
  </metadata>
  <g
     inkscape:label="Layer 1"
     inkscape:groupmode="layer"
     id="layer1">
    <g
       id="g11030">
      <path
         sodipodi:nodetypes="cscscssssscccccsc"
         d="M 183,342.90942 C 183,342.90942 176.25,358.15942 172.5,371.90942 C 168.75,385.65942 167.5,389.40942 167.5,389.40942 C 167.5,409.40942 160.625,420.03442 162.5,444.40942 C 164.375,468.78442 165.73684,490.90504 175,494.40942 C 172.5,499.40942 172.5,501.90942 167.5,501.90942 C 155,501.90942 155,494.40942 155,493.15942 C 155,486.90942 155,489.40942 152.5,481.90942 C 148.46887,469.81604 138.24457,452.77656 136.82609,425.5656 C 135.40761,398.35465 145.97507,403.23618 145,376.90942 C 144,349.90942 141.5,325.40942 141.5,325.40942 C 141.5,325.40942 141.5,319.40942 141,315.40942 C 143.5,312.40942 143.25,312.15942 145,309.40942 C 160.25,324.65942 160,339.40942 160,339.40942 C 160,339.40942 168,336.90943 175.5,319.40943 C 175.5,329.40943 178.625,335.65942 180.5,338.90942 C 182.375,342.15942 183,342.90942 183,342.90942 z "
         style="fill:#deaa87;fill-opacity:1;fill-rule:evenodd;stroke:#000000;stroke-width:1;stroke-linecap:butt;stroke-linejoin:miter;stroke-miterlimit:4;stroke-opacity:1"
         id="path18926" />
      <path
         sodipodi:nodetypes="ccscscscccscsc"
         d="M 180,486.90942 C 185,489.40942 184.26316,497.9138 175,494.40942 C 165.73684,490.90504 164.375,468.78442 162.5,444.40942 C 160.625,420.03442 167.5,409.40942 167.5,389.40942 C 167.5,389.40942 168.75,385.65942 172.5,371.90942 C 176.25,358.15942 183,342.90942 183,342.90942 C 183,342.90942 185.25,345.28442 187,346.90942 C 188.75,348.53442 190,349.40942 190,349.40942 C 190,349.40942 190,334.40942 205,314.40942 C 205,324.40942 207.5,329.40942 207.5,329.40942 C 207.5,329.40942 202.5,349.40942 195,364.40942 C 187.83563,378.73815 185,389.40942 185,389.40942 C 185,389.40942 185,414.40942 172.5,464.40942 C 169.4683,476.5362 175,484.40942 180,486.90942 z "
         style="fill:#deaa87;fill-rule:evenodd;stroke:#000000;stroke-width:1px;stroke-linecap:butt;stroke-linejoin:miter;stroke-opacity:1;fill-opacity:1"
         id="path14051" />
      <path
         sodipodi:nodetypes="csszc"
         id="path4153"
         d="M 207.7803,99.409424 C 207.7803,99.409424 220.32367,71.65283 233.51083,49.409424 C 246.698,27.166018 260.52896,10.4358 263.10414,12.750685 C 267.867,17.032125 254.07376,31.539784 244.05207,54.582978 C 234.03037,77.626172 225,104.92346 225,104.92346"
         style="fill:#ffe6d5;fill-rule:evenodd;stroke:#000000;stroke-width:1px;stroke-linecap:butt;stroke-linejoin:miter;stroke-opacity:1" />
      <path
         sodipodi:nodetypes="csszsssc"
         id="path4151"
         d="M 182.5,184.40942 C 182.5,184.40942 173.07828,147.052 150,112.1825 C 125,74.409424 125,74.409424 100,56.117349 C 70.209745,34.320326 42.761815,25.752183 36.054713,33.627734 C 29.34761,41.503285 54.52139,53.362295 75,83.654265 C 95.478612,113.94623 94.420133,121.10979 109.01227,149.40942 C 114.90411,160.8359 115.28835,173.22335 125,189.40942 C 132.5,201.90942 134.5,201.40942 142,203.90942"
         style="fill:#ffe6d5;fill-rule:evenodd;stroke:#000000;stroke-width:1.16286123px;stroke-linecap:butt;stroke-linejoin:miter;stroke-opacity:1" />
      <path
         sodipodi:nodetypes="ccssssssccc"
         d="M 172.5,236.90942 L 167.5,185.90942 C 167.5,185.90942 165,179.40942 157.5,179.40942 C 150,179.40942 145,179.40942 137.5,184.40942 C 130,189.40942 127.5,194.40942 125,201.90942 C 122.43065,209.61747 122.5,216.90942 127.5,226.90942 C 132.5,236.90942 136.875,241.90942 145,244.40942 C 153.125,246.90942 155.625,246.28442 162.5,244.40942 C 169.375,242.53442 172.5,236.90942 172.5,236.90942 L 172.5,236.90942 L 172.5,236.90942 z "
         style="fill:#ffe6d5;fill-rule:evenodd;stroke:#000000;stroke-width:1px;stroke-linecap:butt;stroke-linejoin:miter;stroke-opacity:1;fill-opacity:1"
         id="path13076" />
      <path
         sodipodi:nodetypes="cssccccsscscscc"
         d="M 245,139.40942 C 235,159.40942 240,159.40942 240,169.40942 C 240,174.40942 235,184.40942 220,189.40942 C 210.51317,192.5717 190,183.04067 190,169.40942 C 187.5,164.40942 180,164.40942 180,164.40942 C 180,164.40942 175,154.40942 175,144.40942 C 180,154.40942 180,154.40942 185,159.40942 C 185,154.40942 183.5061,143.99786 185,144.40942 C 186.49391,144.82097 191.09264,138.31678 195,134.40942 C 200,129.40942 200,124.40942 200,124.40942 C 200,124.40942 206.66146,126.07088 215,134.40942 C 220,139.40942 225,144.40942 220,154.40942 C 230,144.40942 230,144.40942 235,139.40942 C 239.04594,135.36348 240,134.40942 240,129.40942 C 242.5,134.40942 240,134.40942 245,139.40942 z "
         style="fill:#deaa87;fill-opacity:1;stroke:#000000;stroke-width:1;stroke-miterlimit:4;stroke-opacity:1"
         id="path4109" />
      <path
         sodipodi:nodetypes="csssczc"
         id="path4149"
         d="M 205,99.409424 C 210,94.409424 204.47214,76.645492 200,74.409424 C 190,69.409424 180,69.409424 170,79.409424 C 160.77198,88.63744 155,94.409424 150,94.409424 C 140.89986,94.409424 140,89.409424 140,89.409424 C 140,89.409424 147.5,109.40942 160,114.40942 C 172.5,119.40942 175,114.40942 175,114.40942"
         style="fill:#ffff00;fill-rule:evenodd;stroke:#000000;stroke-width:1px;stroke-linecap:butt;stroke-linejoin:miter;stroke-opacity:1;fill-opacity:1" />
      <path
         sodipodi:nodetypes="csssssssscsccccccscscsccscscssccc"
         d="M 180,164.40942 C 176.91823,160.87131 174.08663,154.80679 172.4676,150.04987 C 170.84858,145.29294 170,140.01832 170,134.40942 C 170,131.60497 169.46875,126.90014 170,124.40942 C 170.53126,121.91871 170,124.40942 175,114.40942 C 178.16228,108.08487 185.48084,105.69858 187.60824,104.568 C 189.73565,103.43743 192.00968,102.4874 194.40391,101.72317 C 196.79814,100.95893 202.39184,99.796804 205,99.409424 C 207.60816,99.022047 207.23079,99.409424 210,99.409424 C 215.53842,99.409424 216.14905,102.88095 222.5,104.40942 C 225,104.40942 233.4423,104.86148 235,104.40942 C 236.5577,103.95736 240,99.409424 240,94.409424 C 245,104.40942 245,104.40942 240,109.40942 C 245,109.40942 255,104.40942 260,109.40942 C 255,109.40942 255,109.40942 250,114.40942 C 252.4952,114.26986 260,114.40942 265,124.40942 C 260,124.40942 260,119.40943 250,119.40942 C 260,124.40942 260,129.40942 260,134.40942 C 260,144.48725 250,154.40942 250,154.40942 C 250,154.40942 255,149.40942 250,144.40942 C 245,139.40942 247.5,141.90942 246.25,140.65942 C 240,134.40942 241.08174,133.74234 240,129.40942 C 238.91826,125.0765 237.5,119.40942 235,114.40942 C 232.63461,111.43664 240,124.40942 240,129.40942 C 240,134.40942 239.04594,135.36348 235,139.40942 C 230,144.40942 230,144.40942 220,154.40942 C 225,144.40942 220,139.40942 215,134.40942 C 206.66146,126.07088 200,124.40942 200,124.40942 C 200,124.40942 200,129.40942 195,134.40942 C 191.09264,138.31678 186.49391,144.82097 185,144.40942 C 183.5061,143.99786 185,154.40942 185,159.40942 C 180,154.40942 180,154.40942 175,144.40942 C 175,154.40942 180,164.40942 180,164.40942"
         style="fill:#ffff00;fill-rule:nonzero;stroke:#000000;stroke-width:1px;stroke-linecap:butt;stroke-linejoin:miter;stroke-opacity:1;fill-opacity:1"
         id="path4161" />
      <path
         sodipodi:nodetypes="cssss"
         id="path4163"
         d="M 236,156.40942 C 235,159.40942 229.58114,163.49056 228,161.90942 C 227,160.90942 228,156.40942 229,154.40942 C 230.10653,152.19637 233,148.40942 235,149.40942 C 237.52982,150.67433 236.62673,154.52923 236,156.40942 z "
         style="fill:#ffffff;fill-opacity:1;stroke:#000000;stroke-width:0.99999994;stroke-opacity:1" />
      <path
         sodipodi:nodetypes="ccsss"
         id="path4165"
         d="M 208.30907,96.639644 C 208.50719,100.79419 206.13644,103.97204 204.38176,105.04646 C 201.44577,106.43027 197.60828,100.89817 197.60828,96.982857 C 197.60828,93.067551 201.37735,90.474278 203.98455,91.0089 C 207.2763,91.683894 208.16315,93.579598 208.30907,96.639644 z "
         style="fill:#ffffff;fill-opacity:1;stroke:#000000;stroke-opacity:1"
         transform="matrix(1.0532806,-0.6273119,0.7894267,0.8369813,-85.697821,204.19861)" />
      <path
         sodipodi:nodetypes="cssc"
         id="path4167"
         d="M 214,145.40942 C 214,145.40942 209.55756,141.59528 206,140.40942 C 203,139.40942 203,139.40942 200,140.40942 C 196.69659,141.51056 193,145.40942 193,145.40942"
         style="fill:none;fill-rule:evenodd;stroke:#000000;stroke-width:1px;stroke-linecap:butt;stroke-linejoin:miter;stroke-opacity:1" />
      <path
         sodipodi:nodetypes="csc"
         id="path3327"
         d="M 201,152.40942 C 201,152.40942 198.25,151.65942 197,150.40942 C 195.75,149.15942 196,147.40942 196,147.40942"
         style="fill:none;fill-rule:evenodd;stroke:#000000;stroke-width:1px;stroke-linecap:round;stroke-linejoin:miter;stroke-opacity:1" />
      <path
         sodipodi:nodetypes="csc"
         id="path3329"
         d="M 200,153.40942 C 200,153.40942 197.25,153.15942 195,152.40942 C 192.75,151.65942 191.5,149.90942 191.5,149.90942"
         style="fill:none;fill-rule:evenodd;stroke:#000000;stroke-width:1px;stroke-linecap:round;stroke-linejoin:miter;stroke-opacity:1" />
      <path
         sodipodi:nodetypes="csccc"
         id="path3331"
         d="M 198,154.90942 C 198,154.90942 195.75,154.90942 194,154.40942 C 192.25,153.90942 190,152.40942 190,152.40942 L 190,152.40942 L 190,152.40942"
         style="fill:none;fill-rule:evenodd;stroke:#000000;stroke-width:1px;stroke-linecap:round;stroke-linejoin:miter;stroke-opacity:1" />
      <path
         sodipodi:nodetypes="ccc"
         id="path3333"
         d="M 197.5,156.40942 L 193.5,156.40942 L 193,156.40942"
         style="fill:none;fill-rule:evenodd;stroke:#000000;stroke-width:1px;stroke-linecap:round;stroke-linejoin:miter;stroke-opacity:1" />
      <path
         sodipodi:nodetypes="ccscs"
         id="path6244"
         d="M 207,156.40942 C 207,157.40943 207,160.40942 206,161.40942 C 205,162.40942 202.09086,164.68647 199,161.40942 C 195.90916,158.13238 197.97363,153.9226 201,152.40942 C 206,152.40942 207,154.99521 207,156.40942 z "
         style="fill:#008080;fill-opacity:1;stroke:#000000;stroke-width:1.17336822;stroke-opacity:1" />
      <path
         transform="matrix(1.6085636,0,0,1.2064658,-122.75048,-32.999663)"
         d="M 203 157.40942 A 1.5 2 0 1 1  200,157.40942 A 1.5 2 0 1 1  203 157.40942 z"
         sodipodi:ry="2"
         sodipodi:rx="1.5"
         sodipodi:cy="157.40942"
         sodipodi:cx="201.5"
         id="path6246"
         style="fill:#000000;fill-opacity:1;stroke:#000000;stroke-width:0.12499997;stroke-miterlimit:4;stroke-dasharray:none;stroke-opacity:1"
         sodipodi:type="arc" />
      <path
         sodipodi:nodetypes="cssss"
         id="path8187"
         d="M 234,155.40942 C 234,157.64549 230.5,159.40942 229.5,159.40942 C 228.08579,159.40942 228,156.40942 229,154.40942 C 230.10653,152.19637 232,150.40942 233,151.40942 C 234,152.40942 234,154.40942 234,155.40942 z "
         style="fill:#008080;fill-opacity:1;stroke:#000000;stroke-width:0.99999994;stroke-opacity:1" />
      <path
         transform="translate(-0.5,0.5)"
         d="M 232 154.40942 A 1 1 0 1 1  230,154.40942 A 1 1 0 1 1  232 154.40942 z"
         sodipodi:ry="1"
         sodipodi:rx="1"
         sodipodi:cy="154.40942"
         sodipodi:cx="231"
         id="path9158"
         style="fill:#000000;fill-opacity:1;stroke:#000000;stroke-width:1;stroke-miterlimit:4;stroke-dasharray:none;stroke-opacity:1"
         sodipodi:type="arc" />
      <path
         sodipodi:nodetypes="cscc"
         id="path9160"
         d="M 234.5,148.90942 C 234.5,148.90942 235.25,148.65942 236,147.40942 C 236.75,146.15942 237,144.40942 237,144.40942 L 237,144.40942"
         style="fill:none;fill-rule:evenodd;stroke:#000000;stroke-width:1px;stroke-linecap:round;stroke-linejoin:miter;stroke-opacity:1" />
      <path
         sodipodi:nodetypes="csc"
         id="path9162"
         d="M 236.5,149.90942 C 236.5,149.90942 237.75,149.65942 239,148.40942 C 240.25,147.15942 241,145.40942 241,145.40942"
         style="fill:none;fill-rule:evenodd;stroke:#000000;stroke-width:1px;stroke-linecap:round;stroke-linejoin:miter;stroke-opacity:1" />
      <path
         sodipodi:nodetypes="csc"
         id="path9164"
         d="M 237,152.40942 C 237,152.40942 238.75,151.90942 240,151.40942 C 241.25,150.90942 242,149.40942 242,149.40942"
         style="fill:none;fill-rule:evenodd;stroke:#000000;stroke-width:1px;stroke-linecap:round;stroke-linejoin:miter;stroke-opacity:1" />
      <path
         sodipodi:nodetypes="cscc"
         id="path13052"
         d="M 195,194.40942 C 195,194.40942 197.5,198.15942 200,199.40942 C 202.5,200.65942 205,199.40942 205,199.40942 L 205,199.40942"
         style="fill:none;fill-rule:evenodd;stroke:#000000;stroke-width:1px;stroke-linecap:butt;stroke-linejoin:miter;stroke-opacity:1" />
      <path
         sodipodi:nodetypes="cscscccccccccccsc"
         d="M 205,244.40942 C 205,244.40942 208.75,253.15942 215,259.40942 C 220,264.40942 229.5,267.40942 229.5,267.40942 C 234.5,267.40942 238.12233,261.20554 239.5,258.90942 C 241,256.40942 242,256.40943 246,254.40943 C 246,254.40943 240.5,249.90942 235.5,259.90942 C 235.5,249.90942 235,247.90942 241.5,239.90942 C 236.5,239.90942 231,250.90942 231,250.90942 C 231,250.90942 231.5,245.90942 235,239.90942 C 231.5,239.40942 227.5,249.90942 227.5,249.90942 C 227.5,249.90942 228.5,245.40942 230.5,241.40942 C 228.41991,242.65296 227.12729,247.0831 226.5,248.40942 C 226.32827,247.05019 228,243.40942 228,242.90942 C 224.5,245.40942 225,249.40942 225,249.40942 C 225,249.40942 230,259.40942 230,259.40942 C 230,259.40942 227.5,254.40942 225,249.40942 C 221.7404,242.89022 215,234.40942 215,234.40942"
         style="fill:#deaa87;fill-rule:evenodd;stroke:#000000;stroke-width:1px;stroke-linecap:butt;stroke-linejoin:miter;stroke-opacity:1;fill-opacity:1"
         id="path13063" />
      <path
         d="M 155,494.40942 C 153.41886,497.5717 152.5,499.40942 152.5,504.40942 C 155,506.90942 160,504.40942 180,511.90942 C 185,514.40942 205,509.40942 202.5,504.40942 C 199.31311,498.03565 186.98684,498.40504 175,494.40942M 155,494.40942 C 155,494.40942 155,501.90942 167.5,501.90942 C 172.5,501.90942 175,494.40942 175,494.40942 L 175,494.40942"
         style="fill:#501616;fill-rule:evenodd;stroke:#000000;stroke-width:1;stroke-linecap:butt;stroke-linejoin:miter;stroke-miterlimit:4;stroke-opacity:1;fill-opacity:1"
         id="path18924" />
      <path
         sodipodi:nodetypes="cscscsc"
         d="M 180,486.90942 C 190,489.40942 203.75,483.78442 207.5,486.90942 C 211.25,490.03442 195,499.40942 195,499.40942 C 195,499.40942 190.39369,498.08816 184.5,496.90942 C 172,494.40942 172,492.40942 172,492.40942 C 172,492.40942 174.375,493.15942 177.5,491.90942 C 180.625,490.65942 180,486.90942 180,486.90942"
         style="fill:#501616;fill-rule:evenodd;stroke:#000000;stroke-width:1px;stroke-linecap:butt;stroke-linejoin:miter;stroke-opacity:1;fill-opacity:1"
         id="path3215" />
      <path
         sodipodi:nodetypes="cc"
         id="path14055"
         d="M 167.5,389.40942 L 162.5,396.90942"
         style="fill:none;fill-rule:evenodd;stroke:#000000;stroke-width:1px;stroke-linecap:butt;stroke-linejoin:miter;stroke-opacity:1" />
      <path
         id="path14057"
         d="M 185,389.40942 L 180,396.90942"
         style="fill:none;fill-rule:evenodd;stroke:#000000;stroke-width:1px;stroke-linecap:butt;stroke-linejoin:miter;stroke-opacity:1" />
      <path
         sodipodi:nodetypes="ccsc"
         id="path14059"
         d="M 132.5,321.90942 C 132.5,321.90942 134.5,324.40942 132,331.90942 C 137,330.65942 140.5,327.47192 141.5,325.40942 C 142.5,323.34692 141.5,315.40942 141.5,315.40942"
         style="fill:#808000;fill-rule:evenodd;stroke:#000000;stroke-width:1px;stroke-linecap:butt;stroke-linejoin:miter;stroke-opacity:1" />
      <path
         sodipodi:nodetypes="ccccc"
         d="M 212.5,183.90942 C 216.5,185.40942 221,185.40942 221,185.40942 C 221,185.40942 225.5,183.40942 225.5,183.40942 C 226,185.90942 224.5,189.90942 220,189.90942 C 214,188.40943 215.769,185.02492 212.5,183.90942 z "
         style="fill:#ff0000;fill-rule:evenodd;stroke:#000000;stroke-width:1px;stroke-linecap:butt;stroke-linejoin:round;stroke-opacity:1;fill-opacity:1"
         id="path14061" />
      <path
         sodipodi:nodetypes="csc"
         id="path14065"
         d="M 225.72222,175.90942 C 225.72222,175.90942 227.59722,174.90942 228.22222,173.90942 C 228.84722,172.90942 228.22222,171.90942 228.22222,171.90942"
         style="fill:none;fill-rule:evenodd;stroke:#000000;stroke-width:1px;stroke-linecap:round;stroke-linejoin:miter;stroke-opacity:1" />
      <path
         sodipodi:nodetypes="csc"
         id="path14067"
         d="M 221,174.90942 C 221,174.90942 221.875,175.90942 222.5,175.90942 C 223.125,175.90942 223.5,174.90942 223.5,174.90942"
         style="fill:none;fill-rule:evenodd;stroke:#000000;stroke-width:1px;stroke-linecap:round;stroke-linejoin:miter;stroke-opacity:1" />
      <path
         sodipodi:nodetypes="csc"
         id="path14069"
         d="M 225.50686,159.40942 C 225.50686,159.40942 223.63186,161.03442 223.50686,162.90942 C 223.38186,164.78442 225.00686,166.90942 225.00686,166.90942"
         style="fill:none;fill-rule:evenodd;stroke:#000000;stroke-width:1px;stroke-linecap:round;stroke-linejoin:miter;stroke-opacity:1" />
      <path
         sodipodi:nodetypes="ccccc"
         d="M 212.5,183.90942 C 216,184.40942 218.5,182.40942 222.5,182.40942 C 224,181.90942 227.5,180.40942 225.5,183.40942 C 225.5,183.40942 221,185.40943 221,185.40942 C 221,185.40943 214,184.97193 212.5,183.90942 z "
         style="fill:#ff0000;fill-rule:evenodd;stroke:#000000;stroke-width:1px;stroke-linecap:butt;stroke-linejoin:round;stroke-opacity:1;fill-opacity:1"
         id="path22845" />
      <path
         sodipodi:nodetypes="csc"
         id="path5116"
         d="M 220,216.90942 C 220,216.90942 219.75,212.65942 218,208.90942 C 216.25,205.15942 212,201.90942 212,201.90942"
         style="fill:none;fill-rule:evenodd;stroke:#000000;stroke-width:1px;stroke-linecap:butt;stroke-linejoin:miter;stroke-opacity:1" />
      <path
         sodipodi:nodetypes="cscscsscsccccccsssc"
         id="path13046"
         d="M 220,219.40942 C 220,219.40942 218.75,208.15942 215,209.40942 C 211.25,210.65942 205,224.40942 205,224.40942 C 205,224.40942 198.75,203.15942 190,204.40942 C 181.25,205.65942 176.94457,210.89058 170,229.40942 C 170,229.40942 176.25,236.90942 170,249.40942 C 163.75,261.90942 158.75,260.65942 145,279.40942 C 131.25,298.15942 140,309.40942 115,324.40942 C 125,324.40942 128.125,324.40942 132.5,321.90942 C 136.875,319.40942 142.5,314.40942 145,309.40942 C 160,324.40942 160,339.40942 160,339.40942 C 160,339.40942 168,337.40942 175.5,319.90942 C 175.5,339.90942 190,349.40942 190,349.40942 C 190,349.40942 190,334.40942 205,314.40942 C 205,329.40942 210,339.40942 225,339.40942 C 205,329.40942 216.51921,308.96703 210,289.40942 C 205,274.40942 200,271.90942 200,259.40942 C 200,254.40942 201.29475,248.11466 210,239.40942 C 215,234.40942 220,229.40942 220,214.40942"
         style="fill:#808000;fill-rule:evenodd;stroke:#000000;stroke-width:1px;stroke-linecap:butt;stroke-linejoin:miter;stroke-opacity:1;fill-opacity:1" />
      <path
         id="path11025"
         d="M 165,213.90942 L 175,203.90942"
         style="fill:#deaa87;fill-opacity:1;fill-rule:evenodd;stroke:#000000;stroke-width:1px;stroke-linecap:butt;stroke-linejoin:miter;stroke-opacity:1" />
      <path
         sodipodi:nodetypes="cscsssscccsscscscsccssssscccccssccscsccccc"
         d="M 74.75,229.40942 C 74.75,229.40942 83.447933,229.28442 100,224.40942 C 116.55207,219.53442 120,216.90942 130,216.90942 C 135,211.90942 140,204.40942 147.5,199.40942 C 157.90063,192.47567 162.5,188.15942 170,184.40942 C 177.5,180.65942 180,185.65942 185,184.40942 C 190,183.15942 188.75,183.15942 190,179.40942 C 191.25,175.65942 190,169.40942 190,169.40942 C 190,169.40942 190.5,176.90942 196.5,182.40942 C 202.5,186.90942 205.5,187.90942 205.5,187.90942 C 205.5,187.90942 204.54232,188.24012 204,190.40942 C 203.5,192.40942 205,194.40942 205.25,194.40942 C 205.5,194.40942 216.25,194.40943 220,204.40942 C 220.51777,207.94496 220,211.90942 220,216.90942 C 220,221.90942 220,219.40942 220,219.40942 C 220,219.40942 218.75,208.15942 215,209.40942 C 211.25,210.65942 205,224.40942 205,224.40942 C 205,224.40942 198.75,203.15942 190,204.40942 C 181.25,205.65942 177.19457,209.89059 170,228.90942 L 165,213.90942 C 164.75,213.65942 162.5,217.65942 150,223.90942 C 137.5,230.15942 132.5,236.90942 115,239.40942 C 97.5,241.90942 69.75,239.40942 69.5,239.40942 C 69.25,239.40942 68,237.15942 66.5,234.40942 C 65,231.65942 65,230.78442 64,228.40942 C 63,226.03442 62.5,224.90942 62.5,224.90942 L 52.5,225.90942 L 60.5,222.90942 C 57.166667,223.90942 51.5,225.40943 51,225.40942 C 51.5,224.40943 56.478722,222.41753 59.5,220.90942 C 59.5,220.90942 53.350439,223.90942 50.5,223.90942 C 49.5,223.90942 49.499997,223.40942 49.5,223.40942 C 55,219.90942 58,217.90942 58,217.90942 L 57.5,216.90942 C 57.5,216.90942 52.375,216.53442 50,215.90942 C 47.625,215.28442 48,214.40942 48,214.40942 C 48,214.40942 48.84375,214.40942 50.164062,214.41723 C 51.484375,214.42505 55.09375,214.37817 57,214.40942 C 58.90625,214.44067 57.242188,214.33911 59,214.40942 C 60.757812,214.47973 64.125,214.78442 65,214.90942 C 66,215.40942 70,219.40942 70,219.40942 L 74.75,229.40942 z "
         style="fill:#deaa87;fill-opacity:1;fill-rule:evenodd;stroke:#000000;stroke-width:1px;stroke-linecap:butt;stroke-linejoin:miter;stroke-opacity:1"
         id="path11023" />
      <path
         id="path13074"
         d="M 62.527435,224.90942 C 62.527435,224.90942 56.027435,216.90943 56.527435,210.40942 C 60.027435,217.40943 66.527435,220.40942 66.527435,220.40942"
         style="fill:#deaa87;fill-opacity:1;fill-rule:evenodd;stroke:#000000;stroke-width:1px;stroke-linecap:butt;stroke-linejoin:miter;stroke-opacity:1" />
    </g>
  </g>
</svg>
